<svg width="2056" height="1170" viewBox="0 0 2056 1170" fill="none" xmlns="http://www.w3.org/2000/svg">
<g clip-path="url(#clip0_1_348)">
<path d="M1555.79 891.661H460.322C452.844 891.653 445.675 888.727 440.387 883.526C435.099 878.325 432.125 871.273 432.116 863.918V199.495C432.123 194.106 434.302 188.94 438.175 185.129C442.049 181.319 447.301 179.175 452.78 179.169H1562.98C1568.55 179.175 1573.9 181.356 1577.84 185.232C1581.78 189.108 1583.99 194.364 1584 199.846V863.918C1583.99 871.273 1581.02 878.325 1575.73 883.526C1570.44 888.727 1563.27 891.653 1555.79 891.661V891.661Z" fill="#F2F2F2"/>
<path d="M1520.37 856.633H499.424C484.458 856.633 472.282 845.418 472.282 831.633V253.045C472.282 242.822 481.304 234.505 492.395 234.505H1527.07C1538.35 234.505 1547.52 242.959 1547.52 253.351V831.633C1547.52 845.418 1535.34 856.633 1520.37 856.633Z" fill="white"/>
<path d="M1583.61 202.952H431.721V188.827C431.731 181.447 434.718 174.373 440.025 169.156C445.332 163.939 452.526 161.006 460.029 161H1555.3C1562.8 161.006 1570 163.939 1575.3 169.156C1580.61 174.373 1583.6 181.447 1583.61 188.827V202.952Z" fill="#183C81"/>
<path d="M483.167 189.22C487.211 189.22 490.489 185.996 490.489 182.018C490.489 178.04 487.211 174.816 483.167 174.816C479.123 174.816 475.845 178.04 475.845 182.018C475.845 185.996 479.123 189.22 483.167 189.22Z" fill="white"/>
<path d="M510.96 189.22C515.004 189.22 518.282 185.996 518.282 182.018C518.282 178.04 515.004 174.816 510.96 174.816C506.916 174.816 503.638 178.04 503.638 182.018C503.638 185.996 506.916 189.22 510.96 189.22Z" fill="white"/>
<path d="M538.754 189.22C542.797 189.22 546.076 185.996 546.076 182.018C546.076 178.04 542.797 174.816 538.754 174.816C534.71 174.816 531.431 178.04 531.431 182.018C531.431 185.996 534.71 189.22 538.754 189.22Z" fill="white"/>
<path d="M985.679 361.013H786.002C783.026 361.013 780.171 359.85 778.066 357.78C775.961 355.709 774.778 352.901 774.778 349.973C774.778 347.045 775.961 344.237 778.066 342.166C780.171 340.096 783.026 338.932 786.002 338.932H985.679C988.655 338.932 991.51 340.096 993.615 342.166C995.72 344.237 996.903 347.045 996.903 349.973C996.903 352.901 995.72 355.709 993.615 357.78C991.51 359.85 988.655 361.013 985.679 361.013V361.013Z" fill="#CCCCCC"/>
<path d="M1233.8 361.013H1034.12C1031.14 361.013 1028.29 359.85 1026.18 357.78C1024.08 355.709 1022.9 352.901 1022.9 349.973C1022.9 347.045 1024.08 344.237 1026.18 342.166C1028.29 340.096 1031.14 338.932 1034.12 338.932H1233.8C1236.77 338.932 1239.63 340.096 1241.73 342.166C1243.84 344.237 1245.02 347.045 1245.02 349.973C1245.02 352.901 1243.84 355.709 1241.73 357.78C1239.63 359.85 1236.77 361.013 1233.8 361.013V361.013Z" fill="#CCCCCC"/>
<path d="M1233.8 402.851H886.431C883.454 402.851 880.599 401.688 878.494 399.617C876.389 397.547 875.207 394.739 875.207 391.811C875.207 388.882 876.389 386.074 878.494 384.004C880.599 381.933 883.454 380.77 886.431 380.77H1233.8C1236.77 380.77 1239.63 381.933 1241.73 384.004C1243.84 386.074 1245.02 388.882 1245.02 391.811C1245.02 394.739 1243.84 397.547 1241.73 399.617C1239.63 401.688 1236.77 402.851 1233.8 402.851Z" fill="#CCCCCC"/>
<path d="M985.678 318.595H786.002C783.028 318.591 780.177 317.426 778.075 315.356C775.973 313.286 774.792 310.48 774.792 307.554C774.792 304.628 775.973 301.822 778.075 299.752C780.177 297.682 783.028 296.517 786.002 296.514H985.678C987.154 296.512 988.615 296.796 989.978 297.35C991.341 297.904 992.581 298.717 993.624 299.743C994.668 300.768 995.496 301.986 996.061 303.326C996.626 304.666 996.917 306.103 996.917 307.554C996.917 309.005 996.626 310.442 996.061 311.782C995.496 313.123 994.668 314.34 993.624 315.366C992.581 316.391 991.341 317.204 989.978 317.758C988.615 318.312 987.154 318.596 985.678 318.595V318.595Z" fill="#CCCCCC"/>
<path d="M1095.56 319.176H1038.85C1035.87 319.176 1033.01 318.013 1030.91 315.942C1028.8 313.872 1027.62 311.063 1027.62 308.135C1027.62 305.207 1028.8 302.399 1030.91 300.328C1033.01 298.258 1035.87 297.095 1038.85 297.095H1095.56C1098.54 297.095 1101.39 298.258 1103.5 300.328C1105.6 302.399 1106.78 305.207 1106.78 308.135C1106.78 311.063 1105.6 313.872 1103.5 315.942C1101.39 318.013 1098.54 319.176 1095.56 319.176Z" fill="#CCCCCC"/>
<path d="M842.715 402.851H786.002C783.028 402.847 780.177 401.683 778.075 399.613C775.973 397.542 774.792 394.736 774.792 391.811C774.792 388.885 775.973 386.079 778.075 384.009C780.177 381.938 783.028 380.774 786.002 380.77H842.715C844.19 380.768 845.651 381.053 847.015 381.607C848.378 382.161 849.617 382.974 850.661 383.999C851.705 385.024 852.533 386.242 853.098 387.582C853.663 388.923 853.953 390.36 853.953 391.811C853.953 393.262 853.663 394.698 853.098 396.039C852.533 397.379 851.705 398.597 850.661 399.622C849.617 400.648 848.378 401.461 847.015 402.015C845.651 402.569 844.19 402.853 842.715 402.851Z" fill="#CCCCCC"/>
<path d="M985.679 752.786H786.002C783.026 752.786 780.171 751.623 778.066 749.553C775.961 747.482 774.778 744.674 774.778 741.746C774.778 738.818 775.961 736.01 778.066 733.939C780.171 731.869 783.026 730.705 786.002 730.705H985.679C987.153 730.705 988.612 730.991 989.974 731.546C991.336 732.101 992.573 732.914 993.615 733.939C994.658 734.964 995.484 736.181 996.048 737.521C996.613 738.86 996.903 740.296 996.903 741.746C996.903 743.196 996.613 744.631 996.048 745.971C995.484 747.31 994.658 748.527 993.615 749.553C992.573 750.578 991.336 751.391 989.974 751.946C988.612 752.501 987.153 752.786 985.679 752.786V752.786Z" fill="#CCCCCC"/>
<path d="M1233.8 752.786H1034.12C1031.14 752.786 1028.29 751.623 1026.18 749.553C1024.08 747.482 1022.9 744.674 1022.9 741.746C1022.9 738.818 1024.08 736.01 1026.18 733.939C1028.29 731.869 1031.14 730.705 1034.12 730.705H1233.8C1235.27 730.705 1236.73 730.991 1238.09 731.546C1239.45 732.101 1240.69 732.914 1241.73 733.939C1242.78 734.964 1243.6 736.181 1244.17 737.521C1244.73 738.86 1245.02 740.296 1245.02 741.746C1245.02 743.196 1244.73 744.631 1244.17 745.971C1243.6 747.31 1242.78 748.527 1241.73 749.553C1240.69 750.578 1239.45 751.391 1238.09 751.946C1236.73 752.501 1235.27 752.786 1233.8 752.786V752.786Z" fill="#CCCCCC"/>
<path d="M1233.8 794.624H886.431C883.454 794.624 880.599 793.461 878.494 791.39C876.389 789.32 875.207 786.512 875.207 783.583C875.207 780.655 876.389 777.847 878.494 775.777C880.599 773.706 883.454 772.543 886.431 772.543H1233.8C1235.27 772.541 1236.73 772.825 1238.1 773.379C1239.46 773.934 1240.7 774.746 1241.74 775.772C1242.79 776.797 1243.61 778.015 1244.18 779.355C1244.74 780.696 1245.03 782.132 1245.03 783.583C1245.03 785.034 1244.74 786.471 1244.18 787.812C1243.61 789.152 1242.79 790.37 1241.74 791.395C1240.7 792.421 1239.46 793.233 1238.1 793.787C1236.73 794.341 1235.27 794.626 1233.8 794.624Z" fill="#CCCCCC"/>
<path d="M985.679 710.368H786.002C783.026 710.368 780.171 709.204 778.066 707.134C775.961 705.063 774.778 702.255 774.778 699.327C774.778 696.399 775.961 693.591 778.066 691.52C780.171 689.45 783.026 688.287 786.002 688.287H985.679C988.655 688.287 991.51 689.45 993.615 691.52C995.72 693.591 996.903 696.399 996.903 699.327C996.903 702.255 995.72 705.063 993.615 707.134C991.51 709.204 988.655 710.368 985.679 710.368Z" fill="#CCCCCC"/>
<path d="M1095.56 710.949H1038.85C1035.87 710.949 1033.01 709.785 1030.91 707.715C1028.8 705.644 1027.62 702.836 1027.62 699.908C1027.62 696.98 1028.8 694.172 1030.91 692.101C1033.01 690.031 1035.87 688.868 1038.85 688.868H1095.56C1098.54 688.868 1101.39 690.031 1103.5 692.101C1105.6 694.172 1106.78 696.98 1106.78 699.908C1106.78 702.836 1105.6 705.644 1103.5 707.715C1101.39 709.785 1098.54 710.949 1095.56 710.949V710.949Z" fill="#CCCCCC"/>
<path d="M842.715 794.624H786.002C783.026 794.624 780.171 793.461 778.066 791.39C775.961 789.32 774.778 786.512 774.778 783.583C774.778 780.655 775.961 777.847 778.066 775.777C780.171 773.706 783.026 772.543 786.002 772.543H842.715C844.19 772.541 845.651 772.825 847.015 773.379C848.378 773.934 849.617 774.746 850.661 775.772C851.705 776.797 852.533 778.015 853.098 779.355C853.663 780.696 853.953 782.132 853.953 783.583C853.953 785.034 853.663 786.471 853.098 787.812C852.533 789.152 851.705 790.37 850.661 791.395C849.617 792.421 848.378 793.233 847.015 793.787C845.651 794.341 844.19 794.626 842.715 794.624Z" fill="#CCCCCC"/>
<path d="M933.529 634.258C929.292 634.267 925.222 632.629 922.207 629.701L847.148 556.795C845.674 555.364 844.504 553.659 843.706 551.78C842.907 549.9 842.496 547.883 842.496 545.846C842.496 543.809 842.907 541.793 843.706 539.913C844.504 538.034 845.674 536.329 847.148 534.897L921.904 462.286C925.018 459.276 929.214 457.595 933.58 457.608C937.946 457.622 942.131 459.329 945.226 462.358C948.324 465.412 950.064 469.551 950.064 473.865C950.064 478.179 948.324 482.317 945.227 485.372L889.677 540.012C887.946 541.719 886.974 544.031 886.974 546.441C886.974 548.851 887.946 551.163 889.677 552.869L944.925 607.213C947.181 609.428 948.718 612.252 949.341 615.327C949.965 618.402 949.646 621.589 948.425 624.485C947.205 627.382 945.138 629.857 942.486 631.596C939.834 633.336 936.717 634.262 933.529 634.258V634.258Z" fill="#0568FD"/>
<path d="M1053.13 634.258C1049.94 634.262 1046.83 633.336 1044.17 631.596C1041.52 629.857 1039.46 627.382 1038.24 624.485C1037.01 621.589 1036.7 618.401 1037.32 615.327C1037.94 612.252 1039.48 609.428 1041.74 607.213L1096.98 552.869C1098.71 551.163 1099.69 548.851 1099.69 546.441C1099.69 544.031 1098.71 541.719 1096.98 540.012L1041.43 485.372C1039.9 483.86 1038.68 482.067 1037.85 480.092C1037.02 478.118 1036.59 476.002 1036.59 473.865C1036.59 471.728 1037.02 469.612 1037.85 467.638C1038.68 465.663 1039.9 463.869 1041.43 462.358V462.358C1044.53 459.329 1048.71 457.622 1053.08 457.608C1057.45 457.595 1061.64 459.276 1064.76 462.286L1139.51 534.897C1140.99 536.329 1142.16 538.034 1142.95 539.913C1143.75 541.793 1144.16 543.809 1144.16 545.846C1144.16 547.883 1143.75 549.9 1142.95 551.78C1142.16 553.659 1140.99 555.364 1139.51 556.795L1064.45 629.701C1061.44 632.629 1057.37 634.267 1053.13 634.258Z" fill="#0568FD"/>
</g>
<g clip-path="url(#clip1_1_348)">
<path d="M477.321 644.882C492.068 644.882 504.022 632.928 504.022 618.182C504.022 603.435 492.068 591.481 477.321 591.481C462.575 591.481 450.621 603.435 450.621 618.182C450.621 632.928 462.575 644.882 477.321 644.882Z" fill="#F2F2F2"/>
<path d="M684.448 1041.15C724.135 1010.92 743.091 960.126 731.224 911.67C730.929 910.466 730.618 909.264 730.29 908.066C722.423 879.302 702.959 851.965 674.59 842.774C650.771 835.058 624.771 840.992 599.921 837.923C551.139 831.899 513.32 792.429 486.71 751.104C460.099 709.778 439.648 663.52 404.288 629.38C346.003 573.104 250.926 560.988 178.661 597.619C106.397 634.25 60.3649 715.519 62.328 796.514C64.2912 877.509 112.374 954.946 182.203 996.031C207.855 1011.12 237.524 1021.82 267.051 1018.08C292.671 1014.83 315.95 1001.06 341.45 996.976C381.541 990.55 421.377 1008.68 456.052 1029.8C490.728 1050.92 524.223 1075.96 563.627 1085.75C601.888 1095.26 649.29 1067.93 684.448 1041.15Z" fill="white"/>
<path d="M627.426 599.32C626.556 598.74 625.676 598.19 624.806 597.63C599.657 581.546 572.701 568.479 544.496 558.7L537.956 648.92H496.496V545.53C493.886 544.99 491.256 544.48 488.626 544V648.92H439.356C412.232 648.92 386.219 638.145 367.04 618.966C347.861 599.786 337.086 573.774 337.086 546.65V546.65C334.446 547.22 331.826 547.83 329.206 548.48V648.92H289.076L282.846 562.89C253.861 574.006 226.343 588.625 200.906 606.42C200.466 606.72 200.026 607.03 199.596 607.33C197.386 608.88 195.206 610.46 193.036 612.06V956.25H311.306L309.216 927.3L297.716 768.35H529.306L517.806 927.3L515.716 956.25H632.676V602.8C630.936 601.62 629.186 600.46 627.426 599.32ZM329.206 742.1H295.816L289.646 656.8H329.206V742.1ZM488.626 742.1H432.546V740.41C432.546 739.598 432.386 738.793 432.075 738.043C431.763 737.292 431.307 736.61 430.732 736.036C430.157 735.462 429.475 735.007 428.724 734.697C427.973 734.387 427.168 734.229 426.356 734.23H401.976C401.164 734.23 400.361 734.389 399.611 734.7C398.861 735.01 398.179 735.465 397.605 736.039C397.031 736.613 396.576 737.295 396.266 738.045C395.955 738.795 395.796 739.598 395.796 740.41V742.1H337.086V656.8H488.626V742.1ZM496.496 742.1V656.8H537.386L531.216 742.1H496.496Z" fill="#183C81"/>
<path d="M18.9999 978.291C27.6872 988.584 37.0834 998.258 47.1199 1007.24L777.7 1008.24C787.736 999.258 797.133 989.584 805.82 979.291L18.9999 978.291Z" fill="#183C81"/>
<path d="M514.43 885.591V971.295C514.431 972.387 514.865 973.435 515.637 974.207C516.41 974.979 517.457 975.414 518.549 975.414H645.553C646.646 975.414 647.693 974.979 648.465 974.207C649.237 973.435 649.672 972.387 649.673 971.295V885.591C649.67 884.5 649.235 883.454 648.463 882.683C647.691 881.912 646.645 881.478 645.553 881.477H518.549C517.458 881.478 516.412 881.912 515.639 882.683C514.867 883.454 514.433 884.5 514.43 885.591V885.591Z" fill="#3F3D56"/>
<path d="M517.409 886.658V970.238C517.41 970.822 517.643 971.381 518.055 971.794C518.468 972.206 519.027 972.438 519.611 972.439H644.496C645.08 972.438 645.639 972.206 646.052 971.794C646.464 971.381 646.697 970.822 646.698 970.238V886.658C646.698 886.073 646.466 885.513 646.053 885.099C645.64 884.686 645.08 884.453 644.496 884.452H519.611C519.027 884.453 518.467 884.686 518.054 885.099C517.641 885.513 517.409 886.073 517.409 886.658V886.658Z" fill="#0568FD"/>
<path d="M511.774 988.01C512.006 988.302 512.302 988.537 512.639 988.698C512.975 988.859 513.344 988.942 513.717 988.94H649.709C650.081 988.939 650.448 988.856 650.784 988.696C651.119 988.536 651.415 988.303 651.649 988.014C651.884 987.725 652.051 987.387 652.138 987.026C652.226 986.664 652.232 986.288 652.155 985.924L650.044 975.897C649.957 975.488 649.768 975.107 649.496 974.79C649.224 974.472 648.877 974.228 648.486 974.079C648.203 973.968 647.902 973.911 647.598 973.911H515.82C515.516 973.911 515.215 973.968 514.932 974.079C514.541 974.228 514.194 974.472 513.922 974.79C513.65 975.107 513.461 975.488 513.374 975.897L511.263 985.924C511.188 986.288 511.195 986.664 511.283 987.025C511.371 987.385 511.539 987.722 511.774 988.01V988.01Z" fill="#2F2E41"/>
<path d="M642.932 978.23H646.144C646.414 978.23 646.632 978.012 646.632 977.742V976.205C646.632 975.936 646.414 975.717 646.144 975.717H642.932C642.662 975.717 642.444 975.936 642.444 976.205V977.742C642.444 978.012 642.662 978.23 642.932 978.23Z" fill="#3F3D56"/>
<path d="M634.555 978.23H637.767C638.037 978.23 638.255 978.012 638.255 977.742V976.205C638.255 975.936 638.037 975.717 637.767 975.717H634.555C634.285 975.717 634.067 975.936 634.067 976.205V977.742C634.067 978.012 634.285 978.23 634.555 978.23Z" fill="#3F3D56"/>
<path d="M626.178 978.23H629.39C629.66 978.23 629.878 978.012 629.878 977.742V976.205C629.878 975.936 629.66 975.717 629.39 975.717H626.178C625.908 975.717 625.69 975.936 625.69 976.205V977.742C625.69 978.012 625.908 978.23 626.178 978.23Z" fill="#3F3D56"/>
<path d="M617.801 978.23H621.013C621.283 978.23 621.501 978.012 621.501 977.742V976.205C621.501 975.936 621.283 975.717 621.013 975.717H617.801C617.531 975.717 617.313 975.936 617.313 976.205V977.742C617.313 978.012 617.531 978.23 617.801 978.23Z" fill="#3F3D56"/>
<path d="M609.424 978.23H612.636C612.906 978.23 613.124 978.012 613.124 977.742V976.205C613.124 975.936 612.906 975.717 612.636 975.717H609.424C609.154 975.717 608.936 975.936 608.936 976.205V977.742C608.936 978.012 609.154 978.23 609.424 978.23Z" fill="#3F3D56"/>
<path d="M601.047 978.23H604.259C604.529 978.23 604.747 978.012 604.747 977.742V976.205C604.747 975.936 604.529 975.717 604.259 975.717H601.047C600.777 975.717 600.559 975.936 600.559 976.205V977.742C600.559 978.012 600.777 978.23 601.047 978.23Z" fill="#3F3D56"/>
<path d="M592.67 978.23H595.882C596.152 978.23 596.37 978.012 596.37 977.742V976.205C596.37 975.936 596.152 975.717 595.882 975.717H592.67C592.4 975.717 592.182 975.936 592.182 976.205V977.742C592.182 978.012 592.4 978.23 592.67 978.23Z" fill="#3F3D56"/>
<path d="M584.293 978.23H587.505C587.775 978.23 587.993 978.012 587.993 977.742V976.205C587.993 975.936 587.775 975.717 587.505 975.717H584.293C584.023 975.717 583.805 975.936 583.805 976.205V977.742C583.805 978.012 584.023 978.23 584.293 978.23Z" fill="#3F3D56"/>
<path d="M575.916 978.23H579.128C579.398 978.23 579.616 978.012 579.616 977.742V976.205C579.616 975.936 579.398 975.717 579.128 975.717H575.916C575.647 975.717 575.428 975.936 575.428 976.205V977.742C575.428 978.012 575.647 978.23 575.916 978.23Z" fill="#3F3D56"/>
<path d="M567.539 978.23H570.751C571.021 978.23 571.239 978.012 571.239 977.742V976.205C571.239 975.936 571.021 975.717 570.751 975.717H567.539C567.27 975.717 567.051 975.936 567.051 976.205V977.742C567.051 978.012 567.27 978.23 567.539 978.23Z" fill="#3F3D56"/>
<path d="M559.162 978.23H562.374C562.644 978.23 562.862 978.012 562.862 977.742V976.205C562.862 975.936 562.644 975.717 562.374 975.717H559.162C558.892 975.717 558.674 975.936 558.674 976.205V977.742C558.674 978.012 558.892 978.23 559.162 978.23Z" fill="#3F3D56"/>
<path d="M550.785 978.23H553.997C554.267 978.23 554.485 978.012 554.485 977.742V976.205C554.485 975.936 554.267 975.717 553.997 975.717H550.785C550.516 975.717 550.297 975.936 550.297 976.205V977.742C550.297 978.012 550.516 978.23 550.785 978.23Z" fill="#3F3D56"/>
<path d="M542.408 978.23H545.62C545.89 978.23 546.108 978.012 546.108 977.742V976.205C546.108 975.936 545.89 975.717 545.62 975.717H542.408C542.139 975.717 541.92 975.936 541.92 976.205V977.742C541.92 978.012 542.139 978.23 542.408 978.23Z" fill="#3F3D56"/>
<path d="M534.031 978.23H537.243C537.513 978.23 537.732 978.012 537.732 977.742V976.205C537.732 975.936 537.513 975.717 537.243 975.717H534.031C533.762 975.717 533.543 975.936 533.543 976.205V977.742C533.543 978.012 533.762 978.23 534.031 978.23Z" fill="#3F3D56"/>
<path d="M525.654 978.23H528.866C529.136 978.23 529.355 978.012 529.355 977.742V976.205C529.355 975.936 529.136 975.717 528.866 975.717H525.654C525.385 975.717 525.166 975.936 525.166 976.205V977.742C525.166 978.012 525.385 978.23 525.654 978.23Z" fill="#3F3D56"/>
<path d="M517.277 978.23H520.489C520.759 978.23 520.977 978.012 520.977 977.742V976.205C520.977 975.936 520.759 975.717 520.489 975.717H517.277C517.008 975.717 516.789 975.936 516.789 976.205V977.742C516.789 978.012 517.008 978.23 517.277 978.23Z" fill="#3F3D56"/>
<path d="M643.031 982.419H646.243C646.513 982.419 646.731 982.2 646.731 981.931V980.394C646.731 980.124 646.513 979.906 646.243 979.906H643.031C642.761 979.906 642.543 980.124 642.543 980.394V981.931C642.543 982.2 642.761 982.419 643.031 982.419Z" fill="#3F3D56"/>
<path d="M634.654 982.419H637.866C638.136 982.419 638.354 982.2 638.354 981.931V980.394C638.354 980.124 638.136 979.906 637.866 979.906H634.654C634.384 979.906 634.166 980.124 634.166 980.394V981.931C634.166 982.2 634.384 982.419 634.654 982.419Z" fill="#3F3D56"/>
<path d="M626.277 982.419H629.489C629.759 982.419 629.977 982.2 629.977 981.931V980.394C629.977 980.124 629.759 979.906 629.489 979.906H626.277C626.007 979.906 625.789 980.124 625.789 980.394V981.931C625.789 982.2 626.007 982.419 626.277 982.419Z" fill="#3F3D56"/>
<path d="M617.9 982.419H621.112C621.382 982.419 621.6 982.2 621.6 981.931V980.394C621.6 980.124 621.382 979.906 621.112 979.906H617.9C617.63 979.906 617.412 980.124 617.412 980.394V981.931C617.412 982.2 617.63 982.419 617.9 982.419Z" fill="#3F3D56"/>
<path d="M609.523 982.419H612.735C613.005 982.419 613.223 982.2 613.223 981.931V980.394C613.223 980.124 613.005 979.906 612.735 979.906H609.523C609.253 979.906 609.035 980.124 609.035 980.394V981.931C609.035 982.2 609.253 982.419 609.523 982.419Z" fill="#3F3D56"/>
<path d="M601.146 982.419H604.358C604.628 982.419 604.846 982.2 604.846 981.931V980.394C604.846 980.124 604.628 979.906 604.358 979.906H601.146C600.876 979.906 600.658 980.124 600.658 980.394V981.931C600.658 982.2 600.876 982.419 601.146 982.419Z" fill="#3F3D56"/>
<path d="M592.769 982.419H595.981C596.251 982.419 596.469 982.2 596.469 981.931V980.394C596.469 980.124 596.251 979.906 595.981 979.906H592.769C592.499 979.906 592.281 980.124 592.281 980.394V981.931C592.281 982.2 592.499 982.419 592.769 982.419Z" fill="#3F3D56"/>
<path d="M584.392 982.419H587.604C587.874 982.419 588.092 982.2 588.092 981.931V980.394C588.092 980.124 587.874 979.906 587.604 979.906H584.392C584.122 979.906 583.904 980.124 583.904 980.394V981.931C583.904 982.2 584.122 982.419 584.392 982.419Z" fill="#3F3D56"/>
<path d="M576.015 982.419H579.227C579.497 982.419 579.715 982.2 579.715 981.931V980.394C579.715 980.124 579.497 979.906 579.227 979.906H576.015C575.745 979.906 575.527 980.124 575.527 980.394V981.931C575.527 982.2 575.745 982.419 576.015 982.419Z" fill="#3F3D56"/>
<path d="M567.638 982.419H570.85C571.12 982.419 571.338 982.2 571.338 981.931V980.394C571.338 980.124 571.12 979.906 570.85 979.906H567.638C567.369 979.906 567.15 980.124 567.15 980.394V981.931C567.15 982.2 567.369 982.419 567.638 982.419Z" fill="#3F3D56"/>
<path d="M559.261 982.419H562.473C562.743 982.419 562.961 982.2 562.961 981.931V980.394C562.961 980.124 562.743 979.906 562.473 979.906H559.261C558.991 979.906 558.773 980.124 558.773 980.394V981.931C558.773 982.2 558.991 982.419 559.261 982.419Z" fill="#3F3D56"/>
<path d="M550.884 982.419H554.096C554.366 982.419 554.584 982.2 554.584 981.931V980.394C554.584 980.124 554.366 979.906 554.096 979.906H550.884C550.615 979.906 550.396 980.124 550.396 980.394V981.931C550.396 982.2 550.615 982.419 550.884 982.419Z" fill="#3F3D56"/>
<path d="M542.507 982.419H545.719C545.989 982.419 546.207 982.2 546.207 981.931V980.394C546.207 980.124 545.989 979.906 545.719 979.906H542.507C542.238 979.906 542.019 980.124 542.019 980.394V981.931C542.019 982.2 542.238 982.419 542.507 982.419Z" fill="#3F3D56"/>
<path d="M534.13 982.419H537.342C537.612 982.419 537.831 982.2 537.831 981.931V980.394C537.831 980.124 537.612 979.906 537.342 979.906H534.13C533.861 979.906 533.642 980.124 533.642 980.394V981.931C533.642 982.2 533.861 982.419 534.13 982.419Z" fill="#3F3D56"/>
<path d="M525.753 982.419H528.965C529.235 982.419 529.453 982.2 529.453 981.931V980.394C529.453 980.124 529.235 979.906 528.965 979.906H525.753C525.484 979.906 525.265 980.124 525.265 980.394V981.931C525.265 982.2 525.484 982.419 525.753 982.419Z" fill="#3F3D56"/>
<path d="M517.376 982.419H520.588C520.858 982.419 521.077 982.2 521.077 981.931V980.394C521.077 980.124 520.858 979.906 520.588 979.906H517.376C517.107 979.906 516.888 980.124 516.888 980.394V981.931C516.888 982.2 517.107 982.419 517.376 982.419Z" fill="#3F3D56"/>
<path d="M573.502 987.445H606.034C606.303 987.445 606.522 987.226 606.522 986.957V985.42C606.522 985.151 606.303 984.932 606.034 984.932H573.502C573.232 984.932 573.014 985.151 573.014 985.42V986.957C573.014 987.226 573.232 987.445 573.502 987.445Z" fill="#3F3D56"/>
<path d="M539.036 902.737H536.192C535.33 902.737 534.631 903.436 534.631 904.298C534.631 905.16 535.33 905.859 536.192 905.859H539.036C539.898 905.859 540.597 905.16 540.597 904.298C540.597 903.436 539.898 902.737 539.036 902.737Z" fill="white"/>
<path d="M571.559 902.737H568.715C567.853 902.737 567.154 903.436 567.154 904.298C567.154 905.16 567.853 905.859 568.715 905.859H571.559C572.421 905.859 573.12 905.16 573.12 904.298C573.12 903.436 572.421 902.737 571.559 902.737Z" fill="white"/>
<path d="M580.774 902.737H577.93C577.068 902.737 576.369 903.436 576.369 904.298C576.369 905.16 577.068 905.859 577.93 905.859H580.774C581.636 905.859 582.335 905.16 582.335 904.298C582.335 903.436 581.636 902.737 580.774 902.737Z" fill="white"/>
<path d="M562.712 902.477H545.039C544.176 902.477 543.477 903.176 543.477 904.038C543.477 904.9 544.176 905.599 545.039 905.599H562.712C563.575 905.599 564.274 904.9 564.274 904.038C564.274 903.176 563.575 902.477 562.712 902.477Z" fill="white"/>
<path d="M606.076 902.477H588.403C587.54 902.477 586.841 903.176 586.841 904.038C586.841 904.9 587.54 905.599 588.403 905.599H606.076C606.939 905.599 607.638 904.9 607.638 904.038C607.638 903.176 606.939 902.477 606.076 902.477Z" fill="white"/>
<path d="M547.709 909.784H544.865C544.003 909.784 543.304 910.483 543.304 911.345C543.304 912.207 544.003 912.906 544.865 912.906H547.709C548.571 912.906 549.27 912.207 549.27 911.345C549.27 910.483 548.571 909.784 547.709 909.784Z" fill="white"/>
<path d="M580.232 909.784H577.388C576.526 909.784 575.827 910.483 575.827 911.345C575.827 912.207 576.526 912.906 577.388 912.906H580.232C581.094 912.906 581.793 912.207 581.793 911.345C581.793 910.483 581.094 909.784 580.232 909.784Z" fill="white"/>
<path d="M589.446 909.784H586.603C585.741 909.784 585.042 910.483 585.042 911.345C585.042 912.207 585.741 912.906 586.603 912.906H589.446C590.309 912.906 591.008 912.207 591.008 911.345C591.008 910.483 590.309 909.784 589.446 909.784Z" fill="white"/>
<path d="M571.385 909.523H553.711C552.849 909.523 552.15 910.222 552.15 911.085C552.15 911.947 552.849 912.646 553.711 912.646H571.385C572.247 912.646 572.946 911.947 572.946 911.085C572.946 910.222 572.247 909.523 571.385 909.523Z" fill="white"/>
<path d="M614.749 909.523H597.075C596.213 909.523 595.514 910.222 595.514 911.085C595.514 911.947 596.213 912.646 597.075 912.646H614.749C615.611 912.646 616.31 911.947 616.31 911.085C616.31 910.222 615.611 909.523 614.749 909.523Z" fill="white"/>
<path d="M556.381 916.83H553.538C552.676 916.83 551.977 917.529 551.977 918.391C551.977 919.254 552.676 919.953 553.538 919.953H556.381C557.244 919.953 557.943 919.254 557.943 918.391C557.943 917.529 557.244 916.83 556.381 916.83Z" fill="white"/>
<path d="M588.904 916.83H586.061C585.199 916.83 584.5 917.529 584.5 918.391C584.5 919.254 585.199 919.953 586.061 919.953H588.904C589.767 919.953 590.466 919.254 590.466 918.391C590.466 917.529 589.767 916.83 588.904 916.83Z" fill="white"/>
<path d="M598.119 916.83H595.276C594.413 916.83 593.715 917.529 593.715 918.391C593.715 919.254 594.413 919.953 595.276 919.953H598.119C598.981 919.953 599.68 919.254 599.68 918.391C599.68 917.529 598.981 916.83 598.119 916.83Z" fill="white"/>
<path d="M580.058 916.57H562.384C561.522 916.57 560.823 917.269 560.823 918.131C560.823 918.993 561.522 919.692 562.384 919.692H580.058C580.92 919.692 581.619 918.993 581.619 918.131C581.619 917.269 580.92 916.57 580.058 916.57Z" fill="white"/>
<path d="M623.422 916.57H605.748C604.886 916.57 604.187 917.269 604.187 918.131C604.187 918.993 604.886 919.692 605.748 919.692H623.422C624.284 919.692 624.983 918.993 624.983 918.131C624.983 917.269 624.284 916.57 623.422 916.57Z" fill="white"/>
<path d="M565.054 923.877H562.211C561.348 923.877 560.649 924.576 560.649 925.438C560.649 926.3 561.348 926.999 562.211 926.999H565.054C565.916 926.999 566.615 926.3 566.615 925.438C566.615 924.576 565.916 923.877 565.054 923.877Z" fill="white"/>
<path d="M597.577 923.877H594.734C593.871 923.877 593.172 924.576 593.172 925.438C593.172 926.3 593.871 926.999 594.734 926.999H597.577C598.439 926.999 599.138 926.3 599.138 925.438C599.138 924.576 598.439 923.877 597.577 923.877Z" fill="white"/>
<path d="M606.792 923.877H603.948C603.086 923.877 602.387 924.576 602.387 925.438C602.387 926.3 603.086 926.999 603.948 926.999H606.792C607.654 926.999 608.353 926.3 608.353 925.438C608.353 924.576 607.654 923.877 606.792 923.877Z" fill="white"/>
<path d="M588.731 923.617H571.057C570.195 923.617 569.496 924.316 569.496 925.178C569.496 926.04 570.195 926.739 571.057 926.739H588.731C589.593 926.739 590.292 926.04 590.292 925.178C590.292 924.316 589.593 923.617 588.731 923.617Z" fill="white"/>
<path d="M571.559 951.898H568.715C567.853 951.898 567.154 952.596 567.154 953.459C567.154 954.321 567.853 955.02 568.715 955.02H571.559C572.421 955.02 573.12 954.321 573.12 953.459C573.12 952.596 572.421 951.898 571.559 951.898Z" fill="white"/>
<path d="M580.774 951.898H577.93C577.068 951.898 576.369 952.596 576.369 953.459C576.369 954.321 577.068 955.02 577.93 955.02H580.774C581.636 955.02 582.335 954.321 582.335 953.459C582.335 952.596 581.636 951.898 580.774 951.898Z" fill="white"/>
<path d="M606.076 952.158H588.403C587.54 952.158 586.841 952.857 586.841 953.719C586.841 954.581 587.54 955.28 588.403 955.28H606.076C606.939 955.28 607.638 954.581 607.638 953.719C607.638 952.857 606.939 952.158 606.076 952.158Z" fill="white"/>
<path d="M539.036 951.898H536.192C535.33 951.898 534.631 952.596 534.631 953.459C534.631 954.321 535.33 955.02 536.192 955.02H539.036C539.898 955.02 540.597 954.321 540.597 953.459C540.597 952.596 539.898 951.898 539.036 951.898Z" fill="white"/>
<path d="M562.712 952.158H545.039C544.176 952.158 543.477 952.857 543.477 953.719C543.477 954.581 544.176 955.28 545.039 955.28H562.712C563.575 955.28 564.274 954.581 564.274 953.719C564.274 952.857 563.575 952.158 562.712 952.158Z" fill="white"/>
<path d="M547.709 944.851H544.865C544.003 944.851 543.304 945.55 543.304 946.412C543.304 947.274 544.003 947.973 544.865 947.973H547.709C548.571 947.973 549.27 947.274 549.27 946.412C549.27 945.55 548.571 944.851 547.709 944.851Z" fill="white"/>
<path d="M580.232 944.851H577.388C576.526 944.851 575.827 945.55 575.827 946.412C575.827 947.274 576.526 947.973 577.388 947.973H580.232C581.094 947.973 581.793 947.274 581.793 946.412C581.793 945.55 581.094 944.851 580.232 944.851Z" fill="white"/>
<path d="M589.446 944.851H586.603C585.741 944.851 585.042 945.55 585.042 946.412C585.042 947.274 585.741 947.973 586.603 947.973H589.446C590.309 947.973 591.008 947.274 591.008 946.412C591.008 945.55 590.309 944.851 589.446 944.851Z" fill="white"/>
<path d="M571.385 945.111H553.711C552.849 945.111 552.15 945.81 552.15 946.672C552.15 947.534 552.849 948.233 553.711 948.233H571.385C572.247 948.233 572.946 947.534 572.946 946.672C572.946 945.81 572.247 945.111 571.385 945.111Z" fill="white"/>
<path d="M556.381 937.804H553.538C552.676 937.804 551.977 938.503 551.977 939.365C551.977 940.227 552.676 940.926 553.538 940.926H556.381C557.244 940.926 557.943 940.227 557.943 939.365C557.943 938.503 557.244 937.804 556.381 937.804Z" fill="white"/>
<path d="M588.904 937.804H586.061C585.199 937.804 584.5 938.503 584.5 939.365C584.5 940.227 585.199 940.926 586.061 940.926H588.904C589.767 940.926 590.466 940.227 590.466 939.365C590.466 938.503 589.767 937.804 588.904 937.804Z" fill="white"/>
<path d="M598.119 937.804H595.276C594.413 937.804 593.715 938.503 593.715 939.365C593.715 940.227 594.413 940.926 595.276 940.926H598.119C598.981 940.926 599.68 940.227 599.68 939.365C599.68 938.503 598.981 937.804 598.119 937.804Z" fill="white"/>
<path d="M580.058 938.064H562.384C561.522 938.064 560.823 938.763 560.823 939.626C560.823 940.488 561.522 941.187 562.384 941.187H580.058C580.92 941.187 581.619 940.488 581.619 939.626C581.619 938.763 580.92 938.064 580.058 938.064Z" fill="white"/>
<path d="M565.054 930.758H562.211C561.348 930.758 560.649 931.456 560.649 932.319C560.649 933.181 561.348 933.88 562.211 933.88H565.054C565.916 933.88 566.615 933.181 566.615 932.319C566.615 931.456 565.916 930.758 565.054 930.758Z" fill="white"/>
<path d="M597.577 930.758H594.734C593.871 930.758 593.172 931.456 593.172 932.319C593.172 933.181 593.871 933.88 594.734 933.88H597.577C598.439 933.88 599.138 933.181 599.138 932.319C599.138 931.456 598.439 930.758 597.577 930.758Z" fill="white"/>
<path d="M606.792 930.758H603.948C603.086 930.758 602.387 931.456 602.387 932.319C602.387 933.181 603.086 933.88 603.948 933.88H606.792C607.654 933.88 608.353 933.181 608.353 932.319C608.353 931.456 607.654 930.758 606.792 930.758Z" fill="white"/>
<path d="M588.731 931.018H571.057C570.195 931.018 569.496 931.717 569.496 932.579C569.496 933.441 570.195 934.14 571.057 934.14H588.731C589.593 934.14 590.292 933.441 590.292 932.579C590.292 931.717 589.593 931.018 588.731 931.018Z" fill="white"/>
<path d="M523.917 1034.48L510.568 1013.38L552.47 979.977L569.765 960.816C572.012 958.327 574.873 956.471 578.062 955.433C581.251 954.396 584.657 954.214 587.938 954.905C591.22 955.596 594.262 957.136 596.762 959.372C599.262 961.607 601.131 964.46 602.183 967.644C603.742 972.363 603.407 977.502 601.248 981.979C599.089 986.455 595.276 989.917 590.613 991.635L563.264 1001.71L523.917 1034.48Z" fill="#FFB6B6"/>
<path d="M210.69 881.481V984.041H282.54V881.481C282.541 880.743 282.306 880.025 281.868 879.431C281.431 878.837 280.815 878.399 280.11 878.181C279.778 878.071 279.43 878.017 279.08 878.021H214.16C213.705 878.02 213.254 878.109 212.833 878.282C212.413 878.456 212.03 878.71 211.708 879.032C211.386 879.353 211.13 879.735 210.955 880.155C210.78 880.575 210.69 881.026 210.69 881.481V881.481ZM238.73 916.721C238.749 914.699 239.565 912.766 241.001 911.343C242.438 909.92 244.378 909.122 246.4 909.122C248.422 909.122 250.362 909.92 251.798 911.343C253.235 912.766 254.051 914.699 254.07 916.721V928.621C254.06 930.648 253.247 932.589 251.81 934.019C250.372 935.449 248.427 936.252 246.4 936.252C244.372 936.252 242.428 935.449 240.99 934.019C239.553 932.589 238.74 930.648 238.73 928.621V916.721Z" fill="#2F2E41"/>
<path d="M210.47 980.761V990.651C210.472 991.163 210.675 991.654 211.036 992.017C211.398 992.381 211.888 992.587 212.4 992.591H280.83C281.343 992.588 281.834 992.383 282.195 992.019C282.557 991.656 282.76 991.164 282.76 990.651V980.761H210.47Z" fill="#3F3D56"/>
<path d="M97.66 726.961V914.221C97.6619 916.607 98.6107 918.895 100.298 920.583C101.986 922.27 104.274 923.219 106.66 923.221H384.16C386.546 923.219 388.834 922.27 390.522 920.583C392.209 918.895 393.158 916.607 393.16 914.221V726.961C393.154 724.577 392.204 722.292 390.517 720.607C388.83 718.922 386.544 717.974 384.16 717.971H106.66C104.276 717.974 101.99 718.922 100.303 720.607C98.616 722.292 97.6657 724.577 97.66 726.961Z" fill="#3F3D56"/>
<path d="M104.17 729.291V911.911C104.172 913.186 104.68 914.408 105.581 915.31C106.483 916.211 107.705 916.719 108.98 916.721H381.85C383.125 916.719 384.347 916.211 385.249 915.31C386.15 914.408 386.658 913.186 386.66 911.911V729.291C386.66 728.014 386.153 726.79 385.252 725.886C384.35 724.983 383.127 724.474 381.85 724.471H108.98C107.703 724.474 106.48 724.983 105.578 725.886C104.677 726.79 104.17 728.014 104.17 729.291Z" fill="white"/>
<path d="M154.81 991.921C155.088 992.269 155.441 992.55 155.843 992.742C156.244 992.934 156.685 993.033 157.13 993.031H319.47C319.914 993.03 320.352 992.931 320.753 992.74C321.154 992.548 321.507 992.27 321.786 991.925C322.066 991.581 322.265 991.178 322.37 990.746C322.474 990.315 322.481 989.865 322.39 989.431L319.87 977.461C319.765 976.973 319.541 976.518 319.216 976.139C318.891 975.76 318.476 975.469 318.01 975.291C317.672 975.158 317.313 975.09 316.95 975.091H159.64C159.277 975.09 158.918 975.158 158.58 975.291C158.114 975.469 157.699 975.76 157.374 976.139C157.049 976.518 156.824 976.973 156.72 977.461L154.2 989.431C154.11 989.865 154.119 990.314 154.224 990.745C154.33 991.175 154.53 991.577 154.81 991.921Z" fill="#2F2E41"/>
<path d="M372.995 749.628H117.671C117.406 749.622 117.153 749.512 116.968 749.322C116.782 749.133 116.678 748.878 116.678 748.612C116.678 748.347 116.782 748.092 116.968 747.902C117.153 747.712 117.406 747.603 117.671 747.597H372.995C373.26 747.603 373.512 747.712 373.698 747.902C373.884 748.092 373.988 748.347 373.988 748.612C373.988 748.878 373.884 749.133 373.698 749.322C373.512 749.512 373.26 749.622 372.995 749.628V749.628Z" fill="#3F3D56"/>
<path d="M135.051 742.413C138.338 742.413 141.002 739.689 141.002 736.33C141.002 732.97 138.338 730.247 135.051 730.247C131.765 730.247 129.101 732.97 129.101 736.33C129.101 739.689 131.765 742.413 135.051 742.413Z" fill="#3F3D56"/>
<path d="M155.607 742.413C158.894 742.413 161.558 739.689 161.558 736.33C161.558 732.97 158.894 730.247 155.607 730.247C152.321 730.247 149.657 732.97 149.657 736.33C149.657 739.689 152.321 742.413 155.607 742.413Z" fill="#3F3D56"/>
<path d="M176.163 742.413C179.45 742.413 182.114 739.689 182.114 736.33C182.114 732.97 179.45 730.247 176.163 730.247C172.877 730.247 170.213 732.97 170.213 736.33C170.213 739.689 172.877 742.413 176.163 742.413Z" fill="#3F3D56"/>
<path d="M360.616 731.751H346.016C345.728 731.758 345.453 731.877 345.251 732.083C345.05 732.29 344.937 732.567 344.937 732.856C344.937 733.145 345.05 733.422 345.251 733.628C345.453 733.835 345.728 733.954 346.016 733.961H360.616C360.907 733.957 361.184 733.839 361.388 733.632C361.592 733.425 361.706 733.146 361.706 732.856C361.706 732.565 361.592 732.287 361.388 732.08C361.184 731.873 360.907 731.755 360.616 731.751Z" fill="#3F3D56"/>
<path d="M360.616 735.901H346.016C345.728 735.907 345.453 736.027 345.251 736.233C345.049 736.44 344.935 736.717 344.935 737.006C344.935 737.295 345.049 737.572 345.251 737.779C345.453 737.985 345.728 738.104 346.016 738.111H360.616C360.907 738.107 361.185 737.989 361.389 737.783C361.594 737.576 361.708 737.297 361.708 737.006C361.708 736.715 361.594 736.436 361.389 736.229C361.185 736.022 360.907 735.904 360.616 735.901V735.901Z" fill="#3F3D56"/>
<path d="M360.616 740.051H346.016C345.728 740.058 345.453 740.177 345.251 740.383C345.05 740.59 344.937 740.867 344.937 741.156C344.937 741.445 345.05 741.722 345.251 741.928C345.453 742.135 345.728 742.254 346.016 742.261H360.616C360.907 742.257 361.184 742.138 361.388 741.932C361.592 741.725 361.706 741.446 361.706 741.156C361.706 740.865 361.592 740.587 361.388 740.38C361.184 740.173 360.907 740.055 360.616 740.051V740.051Z" fill="#3F3D56"/>
<path d="M712.596 985.101C713.036 986.384 713.872 987.494 714.983 988.272C716.094 989.05 717.423 989.457 718.779 989.432L745.271 988.75C746.637 988.724 747.957 988.256 749.035 987.417C750.114 986.577 750.891 985.411 751.252 984.094L755 944.006C756.33 944.609 757.778 944.906 759.238 944.877C760.507 944.845 761.756 944.564 762.916 944.049C764.076 943.534 765.122 942.796 765.997 941.877C766.871 940.957 767.556 939.875 768.012 938.691C768.468 937.507 768.686 936.245 768.654 934.976C768.622 933.708 768.341 932.458 767.826 931.299C767.311 930.139 766.573 929.092 765.654 928.218C764.735 927.344 763.652 926.659 762.468 926.203C761.284 925.747 760.022 925.529 758.753 925.56C758.17 925.559 757.588 925.619 757.017 925.741C756.397 925.07 755.642 924.536 754.803 924.173C753.963 923.811 753.057 923.629 752.143 923.638L711.393 924.69C711.055 924.703 710.718 924.745 710.388 924.815C709.494 924.982 708.646 925.338 707.902 925.859C707.157 926.381 706.533 927.056 706.071 927.839C705.61 928.622 705.321 929.495 705.225 930.399C705.129 931.303 705.228 932.217 705.514 933.08L712.596 985.101ZM755.769 941.284L758.437 931.732C758.74 930.628 758.747 929.464 758.457 928.357C758.587 928.357 758.701 928.295 758.83 928.295C760.659 928.257 762.429 928.946 763.751 930.211C765.073 931.476 765.839 933.213 765.882 935.042C765.925 936.871 765.24 938.643 763.979 939.968C762.718 941.293 760.983 942.064 759.154 942.112C757.971 942.149 756.801 941.863 755.769 941.284Z" fill="#2F2E41"/>
<path d="M710.388 924.815C711.256 929.779 721.017 933.269 732.753 932.662C743.546 932.165 752.371 928.375 753.988 923.884C753.389 923.707 752.767 923.624 752.143 923.638L711.393 924.69C711.055 924.703 710.718 924.745 710.388 924.815V924.815Z" fill="#3F3D56"/>
<path d="M734.904 963.073C734.958 963.059 735.009 963.037 735.055 963.007L740.808 959.241C740.878 959.196 740.935 959.134 740.975 959.061C741.014 958.988 741.035 958.906 741.035 958.823C741.035 958.74 741.014 958.658 740.975 958.585C740.935 958.512 740.878 958.45 740.809 958.405L734.829 954.488C734.774 954.452 734.713 954.427 734.648 954.414C734.583 954.402 734.517 954.402 734.452 954.415C734.388 954.429 734.327 954.454 734.272 954.491C734.218 954.528 734.171 954.576 734.135 954.631C734.099 954.686 734.074 954.747 734.062 954.812C734.05 954.877 734.051 954.943 734.064 955.008C734.078 955.072 734.104 955.133 734.141 955.187C734.178 955.242 734.226 955.288 734.281 955.324L739.622 958.822L734.508 962.17C734.409 962.235 734.336 962.333 734.302 962.446C734.269 962.559 734.276 962.681 734.324 962.789C734.371 962.898 734.456 962.986 734.562 963.038C734.668 963.089 734.79 963.102 734.904 963.073H734.904Z" fill="#0568FD"/>
<path d="M725.818 963.492C725.914 963.468 726.001 963.415 726.068 963.341C726.134 963.266 726.177 963.174 726.19 963.075C726.204 962.977 726.188 962.876 726.144 962.787C726.1 962.697 726.03 962.623 725.944 962.574L720.641 959.533L725.766 955.726C725.819 955.687 725.863 955.638 725.897 955.582C725.931 955.525 725.953 955.463 725.963 955.398C725.972 955.333 725.969 955.267 725.953 955.203C725.937 955.14 725.908 955.08 725.869 955.027C725.83 954.974 725.781 954.93 725.725 954.896C725.668 954.863 725.606 954.84 725.541 954.831C725.476 954.821 725.41 954.825 725.346 954.841C725.283 954.857 725.223 954.885 725.17 954.924L719.432 959.187C719.365 959.236 719.312 959.301 719.276 959.377C719.241 959.452 719.225 959.535 719.23 959.617C719.235 959.7 719.261 959.781 719.304 959.851C719.348 959.922 719.409 959.98 719.481 960.021L725.446 963.441C725.559 963.506 725.692 963.524 725.818 963.492V963.492Z" fill="#0568FD"/>
<path d="M734.332 966.373C734.381 966.361 734.427 966.341 734.469 966.315C734.525 966.281 734.574 966.236 734.613 966.183C734.652 966.13 734.68 966.07 734.695 966.006C734.711 965.942 734.714 965.876 734.704 965.811C734.694 965.746 734.671 965.684 734.637 965.628L726.481 952.22C726.412 952.107 726.301 952.026 726.172 951.994C726.043 951.963 725.907 951.985 725.794 952.054C725.681 952.122 725.6 952.233 725.568 952.362C725.537 952.491 725.558 952.627 725.627 952.74L733.782 966.149C733.838 966.24 733.921 966.311 734.02 966.351C734.119 966.392 734.229 966.399 734.332 966.373Z" fill="#0568FD"/>
<path d="M275.84 804.827H231.649C229.846 804.827 228.385 806.289 228.385 808.091V812.409C228.385 814.211 229.846 815.673 231.649 815.673H275.84C277.642 815.673 279.104 814.211 279.104 812.409V808.091C279.104 806.289 277.642 804.827 275.84 804.827Z" fill="#0568FD"/>
<path d="M301.598 826.519H205.89C204.087 826.519 202.626 827.98 202.626 829.783V834.1C202.626 835.903 204.087 837.364 205.89 837.364H301.598C303.401 837.364 304.862 835.903 304.862 834.1V829.783C304.862 827.98 303.401 826.519 301.598 826.519Z" fill="#E6E6E6"/>
<path d="M301.598 848.21H205.89C204.087 848.21 202.626 849.671 202.626 851.474V855.791C202.626 857.594 204.087 859.056 205.89 859.056H301.598C303.401 859.056 304.862 857.594 304.862 855.791V851.474C304.862 849.671 303.401 848.21 301.598 848.21Z" fill="#E6E6E6"/>
<path d="M309.711 920.846L309.928 921.53L309.939 921.553L316.464 941.391L323.971 964.252L338.093 1007.21L338.23 1013.89V1013.91L339.28 1067.59L336.371 1074.87L339.645 1086.8C339.645 1086.8 338.139 1068.77 330.062 1079.13C325.488 1085.01 320.138 1091.04 315.746 1096.68C322.146 1099.27 328.648 1101.61 335.253 1103.71C336.679 1104.17 338.116 1104.6 339.554 1105.03C339.862 1105.12 340.17 1105.22 340.478 1105.31C362.372 1111.78 385.008 1115.42 407.829 1116.13C409.015 1116.17 410.179 1116.19 411.308 1116.21C411.707 1116.22 412.095 1116.24 412.483 1116.24C413.761 1116.25 415.027 1116.26 416.304 1116.26C418.883 1116.26 421.449 1116.22 424.005 1116.14C442.918 1115.61 461.721 1113.07 480.096 1108.56C479.971 1100.97 479.628 1092.11 479.138 1082.64C478.91 1078 473.788 1072.97 473.48 1068.11C473.263 1064.46 477.86 1061.02 477.621 1057.31C476.069 1034.49 474.13 1043.25 472.693 1027.09C472.544 1025.5 472.407 1023.98 472.282 1022.53C471.358 1012.15 470.719 1005.66 470.719 1005.66L476.856 966.979L486.496 906.244L485.754 905.023L484.922 904.613L434.078 879.447L431.317 872.375C430.513 870.337 429.117 868.587 427.31 867.349C425.502 866.111 423.366 865.441 421.176 865.427L387.683 865.291C385.944 865.283 384.229 865.689 382.68 866.477C381.13 867.265 379.791 868.411 378.773 869.819L369.704 882.379L309.711 920.846Z" fill="#3F3D56"/>
<path d="M345.816 997.654L338.23 1013.89L333.051 1024.98L324.142 1071.62L319.682 1076.36L315.86 1059.6L275.862 1068.48C274.55 1061.19 275.511 1068.72 274.701 1060.73C274.929 1060.5 275.169 1060.27 275.408 1060.04C276.047 1059.45 276.583 1058.89 276.572 1058.35C276.116 1030.77 277.485 983.828 288.915 955.388C290.705 950.745 293.066 946.342 295.942 942.281C296.17 941.973 296.387 941.665 296.604 941.357C301.874 933.976 305.205 926.709 309.928 921.542V921.53C309.957 921.507 309.984 921.48 310.008 921.45C310.025 921.442 310.04 921.43 310.053 921.416L342.497 904.213L343.889 943.319L344.881 971.427L345.816 997.654Z" fill="#3F3D56"/>
<path d="M462.801 1002.26L472.277 1022.54L475.585 1029.6L484.492 1076.24L488.937 1080.96L492.768 1064.21L494.568 1063.84L527.026 1057.12L536.487 1087.16C538.619 1083.61 539.459 1079.43 538.865 1075.33C538.271 1071.23 536.278 1067.46 533.225 1064.66C532.579 1064.07 532.041 1063.5 532.056 1062.97C532.595 1030.52 530.61 971.283 512.689 946.9C506.997 939.163 503.582 931.456 498.613 926.072C498.598 926.056 498.598 926.041 498.583 926.041L486.491 906.243L485.753 905.027L484.922 904.612L462.801 1002.26Z" fill="#3F3D56"/>
<path d="M405.397 855.759C430.005 855.759 449.955 835.809 449.955 811.201C449.955 786.592 430.005 766.642 405.397 766.642C380.788 766.642 360.838 786.592 360.838 811.201C360.838 835.809 380.788 855.759 405.397 855.759Z" fill="#FFB6B6"/>
<path d="M465.622 780.077C465.277 779.708 464.861 779.412 464.398 779.208C463.936 779.003 463.438 778.894 462.932 778.887L463.602 777.027C463.821 776.441 463.88 775.807 463.773 775.191C463.667 774.575 463.398 773.998 462.995 773.52C462.592 773.042 462.069 772.679 461.48 772.47C460.891 772.26 460.257 772.211 459.642 772.327L457.202 772.797L457.432 771.167C457.52 770.56 457.449 769.94 457.225 769.369C457.001 768.798 456.633 768.295 456.155 767.909C455.678 767.524 455.109 767.269 454.503 767.171C453.898 767.072 453.277 767.133 452.702 767.347C452.179 767.553 451.617 767.639 451.056 767.599C450.496 767.559 449.951 767.394 449.462 767.117C448.972 766.848 448.546 766.475 448.214 766.024C447.882 765.573 447.653 765.055 447.542 764.507L446.692 760.407L446.602 760.187C442.462 753.287 434.502 748.267 424.762 746.427C416.092 744.777 407.202 745.617 398.632 746.407C395.232 746.727 391.392 747.087 388.192 749.047C385.472 750.727 383.172 754.087 383.642 757.477C375.192 754.887 366.132 760.057 361.642 766.577C356.322 774.337 355.452 784.057 355.312 791.657C354.932 809.637 358.642 824.347 366.312 835.387C366.872 836.187 367.012 837.857 368.122 838.417L367.892 838.047C369.132 838.667 370.392 839.667 369.922 840.737C368.572 843.817 377.542 850.627 383.862 852.877C395.392 856.987 410.722 856.637 421.502 855.157L421.882 852.607C425.772 852.077 428.512 851.067 429.282 849.487C430.642 848.327 431.802 847.287 432.812 846.327L432.822 846.317C432.842 846.297 432.882 846.267 432.902 846.247C437.772 841.577 438.902 838.917 439.412 834.867C439.902 830.897 439.032 826.867 438.142 823.237C456.882 826.137 430.762 803.277 448.222 798.857C448.422 798.795 448.626 798.745 448.832 798.707C449.342 798.587 449.852 798.467 450.342 798.327C452.704 797.686 454.966 796.72 457.062 795.457C461.942 792.487 463.552 788.547 466.072 784.107C466.436 783.475 466.588 782.743 466.507 782.018C466.426 781.293 466.116 780.613 465.622 780.077V780.077Z" fill="#2F2E41"/>
<path d="M562.992 1005.44C562.982 1007.19 562.962 1009.64 562.882 1012.67C562.872 1013.09 562.862 1013.52 562.852 1013.96C562.722 1019.53 562.592 1024.2 562.382 1029.39C562.372 1029.75 562.362 1030.1 562.342 1030.46C562.062 1037.7 561.622 1046.13 560.862 1059.48C559.452 1084.14 556.992 1062.87 554.522 1071.52C554.402 1071.95 554.272 1072.46 554.152 1073.06C553.778 1075.23 553.147 1077.36 552.272 1079.39C550.962 1080.17 549.612 1080.92 548.282 1081.67C544.492 1083.78 540.642 1085.81 536.762 1087.74C534.582 1088.82 532.392 1089.88 530.192 1090.9C529.842 1091.06 529.502 1091.22 529.162 1091.37C517.896 1096.58 506.286 1101.01 494.412 1104.63C492.092 1105.33 489.782 1106.01 487.442 1106.64C485.002 1107.32 482.562 1107.96 480.092 1108.56C461.717 1113.07 442.915 1115.61 424.002 1116.15C421.452 1116.23 418.882 1116.26 416.302 1116.26C415.022 1116.26 413.762 1116.25 412.482 1116.24C412.092 1116.24 411.702 1116.23 411.312 1116.22C410.182 1116.19 409.012 1116.17 407.832 1116.14C385.011 1115.42 362.376 1111.79 340.482 1105.31L339.552 1105.04C338.112 1104.6 336.682 1104.17 335.252 1103.71C328.652 1101.62 322.149 1099.28 315.742 1096.69C310.852 1094.72 306.019 1092.6 301.242 1090.35C301.199 1090.33 301.158 1090.31 301.122 1090.29C300.122 1089.83 299.112 1089.35 298.112 1088.86C297.982 1088.79 297.842 1088.72 297.702 1088.65C293.972 1086.83 290.282 1084.92 286.632 1082.93C283.562 1075.88 279.242 1074.53 276.562 1068.33C275.782 1066.48 275.218 1064.56 274.882 1062.59C274.882 1062.57 274.872 1062.55 274.872 1062.52C275.152 1066.24 273.682 1055.92 274.862 1062.48C274.852 1062.36 274.842 1062.23 274.832 1062.08C274.802 1061.72 274.762 1061.28 274.702 1060.73C271.272 1027.24 271.492 988.937 270.002 957.377C269.902 955.337 269.799 953.383 269.692 951.517C269.662 950.897 269.622 950.287 269.582 949.687C269.652 949.507 269.732 949.317 269.822 949.137C269.841 949.085 269.865 949.035 269.892 948.987C269.922 948.925 269.955 948.865 269.992 948.807C270.012 948.777 270.042 948.737 270.062 948.707C270.077 948.672 270.094 948.639 270.112 948.607C270.202 948.467 270.302 948.317 270.412 948.177C270.462 948.117 270.502 948.067 270.552 948.017C270.587 947.966 270.627 947.919 270.672 947.877C270.703 947.829 270.74 947.785 270.782 947.747C270.822 947.707 270.862 947.657 270.912 947.607C270.934 947.575 270.961 947.548 270.992 947.527C271.071 947.436 271.158 947.352 271.252 947.277C271.609 946.949 271.99 946.648 272.392 946.377C272.532 946.287 272.682 946.197 272.822 946.097C273.83 945.494 274.891 944.985 275.992 944.577C276.372 944.437 276.752 944.307 277.162 944.167C277.312 944.127 277.452 944.077 277.602 944.027C277.822 943.957 278.042 943.887 278.272 943.837C279.412 943.497 280.642 943.207 281.972 942.937C282.132 942.907 282.302 942.877 282.472 942.837C282.712 942.787 282.962 942.747 283.212 942.707C283.552 942.647 283.902 942.587 284.252 942.527C287.222 942.057 290.592 941.707 294.312 941.477C294.662 941.457 295.012 941.437 295.362 941.417C295.772 941.397 296.182 941.377 296.602 941.357C296.952 941.337 297.312 941.327 297.672 941.317C298.022 941.297 298.382 941.287 298.752 941.277C299.762 941.247 300.802 941.217 301.862 941.197C304.882 941.137 308.062 941.157 311.402 941.227C312.952 941.267 314.532 941.307 316.152 941.377C316.262 941.377 316.362 941.387 316.462 941.387C317.872 941.437 319.292 941.497 320.752 941.577C321.772 941.627 322.802 941.677 323.832 941.737C324.802 941.797 325.782 941.857 326.772 941.927C327.542 941.967 328.312 942.027 329.092 942.077C329.752 942.127 330.412 942.177 331.072 942.217L331.972 942.277C332.462 942.317 332.952 942.347 333.452 942.397C334.552 942.487 335.652 942.577 336.772 942.667C337.882 942.767 339.012 942.867 340.142 942.967C341.272 943.067 342.412 943.177 343.552 943.287C343.672 943.297 343.782 943.307 343.892 943.317C344.932 943.427 345.972 943.527 347.022 943.637C347.262 943.657 347.512 943.677 347.752 943.707C348.753 943.807 349.774 943.925 350.784 944.032C351.094 944.066 351.403 944.098 351.714 944.132C352.505 944.219 353.285 944.293 354.082 944.387C355.132 944.507 356.202 944.617 357.242 944.757C358.052 944.847 358.862 944.937 359.672 945.037C360.942 945.187 362.232 945.347 363.522 945.517C364.012 945.577 364.502 945.637 364.992 945.707C368.672 946.167 372.392 946.677 376.172 947.207C381.902 948.017 387.722 948.897 393.582 949.847C399.452 950.797 405.356 951.8 411.292 952.857C412.792 953.127 414.292 953.397 415.802 953.677C416.482 953.807 417.162 953.937 417.842 954.067C419.002 954.277 420.162 954.497 421.322 954.717C422.482 954.937 423.642 955.157 424.802 955.387C426.182 955.657 427.572 955.927 428.952 956.197C438.042 957.997 447.082 959.917 455.902 961.927C457.352 962.257 458.802 962.597 460.242 962.927C463.122 963.597 465.975 964.277 468.802 964.967C469.582 965.147 470.352 965.337 471.122 965.527C473.042 966.007 474.962 966.487 476.852 966.977L477.182 967.067C478.572 967.407 479.932 967.757 481.292 968.117C484.502 968.957 487.659 969.807 490.762 970.667C492.822 971.237 494.859 971.813 496.872 972.397C499.882 973.267 502.832 974.147 505.702 975.037C506.412 975.257 507.122 975.477 507.822 975.687C509.922 976.337 511.992 976.997 514.002 977.657C515.602 978.177 517.162 978.707 518.702 979.237C520.242 979.767 521.752 980.297 523.232 980.827C524.182 981.167 525.122 981.527 526.062 981.867C527.412 982.367 528.742 982.867 530.042 983.367C530.442 983.517 530.832 983.677 531.222 983.827C531.472 983.937 531.712 984.027 531.952 984.127C532.422 984.317 532.902 984.497 533.362 984.687C533.832 984.867 534.292 985.057 534.752 985.257C535.202 985.437 535.662 985.627 536.102 985.817C536.552 985.997 536.992 986.187 537.432 986.387C537.802 986.537 538.162 986.697 538.512 986.857C539.222 987.167 539.932 987.477 540.622 987.797C540.962 987.957 541.302 988.107 541.642 988.267L542.422 988.627C542.532 988.687 542.642 988.737 542.752 988.787C543.002 988.907 543.262 989.037 543.512 989.157C544.092 989.427 544.662 989.717 545.222 989.987C545.972 990.367 546.702 990.747 547.402 991.117C548.112 991.497 548.802 991.877 549.462 992.247C549.572 992.307 549.672 992.367 549.782 992.427C549.932 992.507 550.082 992.597 550.232 992.677C550.742 992.967 551.232 993.267 551.722 993.557C552.682 994.147 553.592 994.727 554.442 995.307C554.632 995.437 554.812 995.567 555.002 995.687C555.632 996.137 556.232 996.577 556.792 997.027C556.792 997.037 556.792 997.037 556.802 997.037C556.992 997.177 557.172 997.327 557.352 997.467C557.502 997.607 557.662 997.727 557.812 997.867C558.332 998.317 558.812 998.747 559.252 999.187C559.4 999.322 559.54 999.466 559.672 999.617C559.73 999.665 559.784 999.718 559.832 999.777C560.032 999.977 560.212 1000.18 560.382 1000.38C560.408 1000.4 560.432 1000.43 560.452 1000.47C560.692 1000.75 560.912 1001.03 561.122 1001.31C561.222 1001.45 561.332 1001.59 561.422 1001.73C561.542 1001.9 561.662 1002.08 561.762 1002.25C561.852 1002.39 561.932 1002.54 562.012 1002.68C562.224 1003.04 562.405 1003.42 562.552 1003.81C562.665 1004.07 562.755 1004.35 562.822 1004.63C562.898 1004.89 562.955 1005.16 562.992 1005.44V1005.44Z" fill="#183C81"/>
<path opacity="0.2" d="M562.992 1005.44C562.982 1007.19 562.962 1009.64 562.882 1012.67C562.872 1013.09 562.852 1013.52 562.842 1013.96C562.742 1018.21 562.592 1023.46 562.382 1029.39C562.372 1029.75 562.362 1030.1 562.342 1030.46C562.062 1037.7 561.622 1046.13 560.862 1059.48C559.452 1084.14 556.992 1062.87 554.522 1071.52C547.662 1067.3 540.142 1062.88 532.102 1058.34C530.652 1057.52 529.189 1056.69 527.712 1055.87C511.632 1046.9 493.672 1037.5 474.922 1028.19C474.182 1027.82 473.432 1027.45 472.692 1027.09C429.742 1005.86 382.862 985.207 344.882 971.427C337.552 968.767 330.552 966.367 323.972 964.257C310.112 959.827 298.132 956.727 288.912 955.387C279.312 953.987 272.682 954.487 270.002 957.377C269.902 955.337 269.799 953.383 269.692 951.517C269.652 950.897 269.612 950.287 269.572 949.687C269.634 949.522 269.714 949.365 269.792 949.207C269.803 949.183 269.811 949.16 269.822 949.137C269.841 949.085 269.865 949.035 269.892 948.987C269.922 948.925 269.955 948.865 269.992 948.807C270.025 948.736 270.065 948.669 270.112 948.607C270.202 948.467 270.302 948.317 270.412 948.177C270.493 948.072 270.58 947.972 270.672 947.877C270.703 947.829 270.74 947.785 270.782 947.747C270.822 947.707 270.862 947.657 270.912 947.607C270.934 947.575 270.961 947.548 270.992 947.527C271.071 947.436 271.158 947.352 271.252 947.277C271.609 946.948 271.99 946.648 272.392 946.377C272.532 946.287 272.682 946.197 272.822 946.097C273.83 945.494 274.891 944.985 275.992 944.577C276.372 944.437 276.752 944.307 277.162 944.167C277.312 944.127 277.452 944.077 277.602 944.027C277.822 943.957 278.042 943.887 278.272 943.837C279.412 943.497 280.642 943.207 281.972 942.937C282.372 942.857 282.792 942.777 283.212 942.707C283.552 942.647 283.902 942.587 284.252 942.527C287.222 942.057 290.592 941.707 294.312 941.477C294.662 941.457 295.012 941.437 295.362 941.417C295.772 941.397 296.182 941.377 296.602 941.357C296.952 941.337 297.312 941.327 297.672 941.317C298.022 941.297 298.382 941.287 298.752 941.277C299.762 941.247 300.802 941.217 301.862 941.197C304.882 941.147 308.062 941.167 311.402 941.237C312.952 941.267 314.532 941.317 316.152 941.387C316.252 941.387 316.362 941.397 316.462 941.397C317.872 941.437 319.302 941.507 320.752 941.577C321.772 941.627 322.802 941.677 323.832 941.737C324.802 941.797 325.782 941.857 326.772 941.927C327.542 941.967 328.312 942.027 329.092 942.077C329.752 942.127 330.412 942.177 331.072 942.217C331.862 942.277 332.652 942.337 333.452 942.397C334.552 942.487 335.652 942.577 336.772 942.667C337.882 942.767 339.012 942.867 340.142 942.967C341.272 943.067 342.412 943.177 343.552 943.287C343.672 943.297 343.782 943.307 343.892 943.317C344.932 943.427 345.972 943.527 347.022 943.637C352.842 944.227 358.832 944.917 364.992 945.707C368.672 946.177 372.399 946.68 376.172 947.217C381.902 948.027 387.722 948.907 393.582 949.847C399.452 950.797 405.356 951.8 411.292 952.857C412.792 953.127 414.292 953.397 415.802 953.677C417.642 954.017 419.482 954.363 421.322 954.717C422.482 954.937 423.642 955.157 424.802 955.387C426.182 955.657 427.572 955.927 428.952 956.197C438.042 957.997 447.082 959.917 455.902 961.927C457.352 962.257 458.802 962.597 460.242 962.927C463.122 963.597 465.976 964.277 468.802 964.967C469.582 965.157 470.352 965.347 471.122 965.537C473.052 966.017 474.962 966.497 476.852 966.977V966.987C476.962 967.007 477.072 967.037 477.182 967.067C478.562 967.417 479.932 967.767 481.292 968.127C484.502 968.967 487.659 969.813 490.762 970.667C492.822 971.247 494.862 971.817 496.872 972.397C499.882 973.277 502.832 974.157 505.702 975.037C506.412 975.257 507.122 975.477 507.822 975.687C509.922 976.347 511.982 977.003 514.002 977.657C515.602 978.177 517.162 978.707 518.702 979.237C520.242 979.767 521.752 980.297 523.232 980.827C524.192 981.167 525.132 981.517 526.062 981.857C527.422 982.357 528.742 982.857 530.042 983.367C530.442 983.517 530.832 983.677 531.222 983.827C531.952 984.107 532.662 984.397 533.362 984.687C533.832 984.867 534.292 985.057 534.752 985.257C535.202 985.437 535.662 985.627 536.102 985.817C536.552 985.997 536.992 986.187 537.432 986.387C537.802 986.537 538.162 986.697 538.512 986.857C539.222 987.167 539.932 987.477 540.622 987.797C540.962 987.957 541.302 988.107 541.642 988.267L542.422 988.627C542.532 988.687 542.642 988.737 542.752 988.787C543.602 989.187 544.422 989.587 545.222 989.987C545.972 990.367 546.702 990.747 547.402 991.117C548.232 991.557 549.022 991.987 549.782 992.427C549.932 992.507 550.082 992.597 550.232 992.677C550.742 992.967 551.232 993.267 551.722 993.557C552.682 994.147 553.592 994.727 554.442 995.307C555.282 995.887 556.062 996.457 556.792 997.027C556.792 997.037 556.792 997.037 556.802 997.037C557.152 997.317 557.492 997.597 557.812 997.867C558.332 998.317 558.812 998.747 559.252 999.187C559.4 999.322 559.54 999.466 559.672 999.617C559.73 999.665 559.784 999.718 559.832 999.777C560.042 1000.01 560.252 1000.24 560.452 1000.47C560.692 1000.75 560.912 1001.03 561.122 1001.31C561.222 1001.45 561.332 1001.59 561.422 1001.73C561.542 1001.9 561.662 1002.08 561.762 1002.25C561.852 1002.39 561.932 1002.54 562.012 1002.68C562.225 1003.04 562.405 1003.42 562.552 1003.81C562.662 1004.07 562.752 1004.35 562.822 1004.63C562.898 1004.89 562.955 1005.16 562.992 1005.44V1005.44Z" fill="black"/>
</g>
<g clip-path="url(#clip2_1_348)">
<path d="M2055.81 54.4515V489.549C2055.81 519.625 2027.01 544 1991.49 544H1415.32C1379.79 544 1351 519.625 1351 489.549V54.4515C1351 24.3749 1379.79 0 1415.32 0H1991.49C2027.01 0 2055.81 24.3749 2055.81 54.4515Z" fill="#F2F2F2"/>
<path d="M1933.48 320.731C1931.44 320.731 1929.46 320.159 1927.77 319.087C1926.07 318.015 1924.76 316.492 1923.98 314.71C1923.2 312.927 1923 310.966 1923.39 309.074C1923.79 307.182 1924.77 305.444 1926.21 304.08C1927.64 302.716 1929.48 301.787 1931.47 301.41C1933.46 301.034 1935.53 301.227 1937.41 301.965C1939.29 302.704 1940.89 303.954 1942.02 305.558C1943.15 307.162 1943.75 309.048 1943.75 310.977C1943.75 313.564 1942.67 316.045 1940.74 317.874C1938.82 319.703 1936.2 320.731 1933.48 320.731V320.731Z" fill="#E6E6E6"/>
<path d="M1998.89 66.0264H1391.28C1390.88 66.0264 1390.5 65.8751 1390.21 65.6059C1389.93 65.3367 1389.77 64.9717 1389.77 64.591C1389.77 64.2103 1389.93 63.8452 1390.21 63.5761C1390.5 63.3069 1390.88 63.1556 1391.28 63.1556H1998.89C1999.29 63.1556 1999.67 63.3069 1999.96 63.5761C2000.24 63.8452 2000.4 64.2103 2000.4 64.591C2000.4 64.9717 2000.24 65.3367 1999.96 65.6059C1999.67 65.8751 1999.29 66.0264 1998.89 66.0264Z" fill="white"/>
<path d="M1459.37 43.0607C1465.83 43.0607 1471.06 37.9838 1471.06 31.7211C1471.06 25.4585 1465.83 20.3816 1459.37 20.3816C1452.92 20.3816 1447.69 25.4585 1447.69 31.7211C1447.69 37.9838 1452.92 43.0607 1459.37 43.0607Z" fill="white"/>
<path d="M1499.75 43.0607C1506.21 43.0607 1511.44 37.9838 1511.44 31.7211C1511.44 25.4585 1506.21 20.3816 1499.75 20.3816C1493.3 20.3816 1488.06 25.4585 1488.06 31.7211C1488.06 37.9838 1493.3 43.0607 1499.75 43.0607Z" fill="white"/>
<path d="M1540.13 43.0607C1546.58 43.0607 1551.82 37.9838 1551.82 31.7211C1551.82 25.4585 1546.58 20.3816 1540.13 20.3816C1533.67 20.3816 1528.44 25.4585 1528.44 31.7211C1528.44 37.9838 1533.67 43.0607 1540.13 43.0607Z" fill="white"/>
<path d="M1586.17 40.6836C1585.99 40.6838 1585.8 40.649 1585.63 40.5812C1585.46 40.5135 1585.31 40.4141 1585.18 40.289L1577.3 32.638C1577.04 32.393 1576.9 32.0638 1576.9 31.7209C1576.9 31.378 1577.04 31.0487 1577.3 30.8037L1585.18 23.1533C1585.31 23.0301 1585.46 22.9319 1585.63 22.8643C1585.79 22.7966 1585.97 22.7608 1586.16 22.7589C1586.34 22.757 1586.52 22.789 1586.69 22.8532C1586.85 22.9173 1587.01 23.0123 1587.14 23.1328C1587.27 23.2532 1587.37 23.3967 1587.44 23.5551C1587.51 23.7135 1587.55 23.8837 1587.55 24.0559C1587.55 24.2282 1587.52 24.3991 1587.45 24.5589C1587.39 24.7188 1587.29 24.8644 1587.16 24.9876L1580.22 31.7208L1587.16 38.4547C1587.35 38.6393 1587.48 38.873 1587.53 39.1267C1587.58 39.3803 1587.55 39.6425 1587.44 39.8805C1587.34 40.1184 1587.16 40.3216 1586.94 40.4645C1586.71 40.6073 1586.44 40.6835 1586.17 40.6835V40.6836Z" fill="white"/>
<path d="M1599.42 40.6835C1599.15 40.6835 1598.89 40.6073 1598.66 40.4645C1598.43 40.3216 1598.25 40.1184 1598.15 39.8805C1598.04 39.6425 1598.01 39.3803 1598.07 39.1267C1598.12 38.873 1598.25 38.6393 1598.44 38.4547L1605.38 31.7208L1598.44 24.9876C1598.18 24.7389 1598.04 24.4038 1598.04 24.0559C1598.05 23.7081 1598.19 23.376 1598.46 23.1328C1598.72 22.8895 1599.07 22.755 1599.44 22.7589C1599.81 22.7627 1600.15 22.9046 1600.41 23.1533L1608.3 30.8037C1608.55 31.0487 1608.69 31.378 1608.69 31.7209C1608.69 32.0638 1608.55 32.393 1608.3 32.638L1600.41 40.289C1600.28 40.4141 1600.13 40.5134 1599.96 40.5812C1599.79 40.649 1599.61 40.6838 1599.42 40.6835V40.6835Z" fill="white"/>
<path d="M1905.58 21.6945H1890.92C1890.52 21.6943 1890.13 21.7686 1889.76 21.9129C1889.39 22.0572 1889.06 22.2688 1888.78 22.5356C1888.49 22.8023 1888.27 23.1191 1888.12 23.4676C1887.97 23.8162 1887.89 24.1898 1887.89 24.5671V38.497C1887.89 38.8743 1887.97 39.2479 1888.12 39.5965C1888.27 39.945 1888.49 40.2617 1888.78 40.5285C1889.06 40.7953 1889.39 41.0069 1889.76 41.1512C1890.13 41.2955 1890.52 41.3697 1890.92 41.3696H1905.58C1906.39 41.3704 1907.16 41.0684 1907.73 40.5299C1908.3 39.9914 1908.62 39.2603 1908.62 38.497V24.5671C1908.62 23.8038 1908.3 23.0727 1907.73 22.5342C1907.16 21.9957 1906.39 21.6937 1905.58 21.6945V21.6945Z" fill="white"/>
<path d="M1869.65 21.6945H1854.98C1854.58 21.6943 1854.19 21.7686 1853.82 21.9129C1853.46 22.0572 1853.12 22.2688 1852.84 22.5356C1852.56 22.8023 1852.34 23.1191 1852.18 23.4676C1852.03 23.8162 1851.95 24.1898 1851.95 24.5671V38.497C1851.95 38.8743 1852.03 39.2479 1852.18 39.5965C1852.34 39.945 1852.56 40.2617 1852.84 40.5285C1853.12 40.7953 1853.46 41.0069 1853.82 41.1512C1854.19 41.2955 1854.58 41.3697 1854.98 41.3696H1869.65C1870.45 41.3704 1871.22 41.0684 1871.79 40.5299C1872.36 39.9914 1872.68 39.2603 1872.69 38.497V24.5671C1872.68 23.8038 1872.36 23.0727 1871.79 22.5342C1871.22 21.9957 1870.45 21.6937 1869.65 21.6945V21.6945Z" fill="white"/>
<path d="M1939.44 22.3503H1924.78C1924.38 22.3502 1923.99 22.4244 1923.62 22.5687C1923.25 22.7131 1922.92 22.9246 1922.64 23.1914C1922.36 23.4582 1922.13 23.7749 1921.98 24.1235C1921.83 24.472 1921.75 24.8456 1921.75 25.2229V39.1529C1921.75 39.5302 1921.83 39.9038 1921.98 40.2523C1922.13 40.6009 1922.36 40.9176 1922.64 41.1844C1922.92 41.4511 1923.25 41.6627 1923.62 41.807C1923.99 41.9514 1924.38 42.0256 1924.78 42.0254H1939.44C1940.25 42.0262 1941.02 41.7242 1941.59 41.1857C1942.16 40.6472 1942.48 39.9162 1942.48 39.1529V25.2229C1942.48 24.4596 1942.16 23.7285 1941.59 23.19C1941.02 22.6515 1940.25 22.3495 1939.44 22.3503V22.3503Z" fill="white"/>
<path d="M1779.22 27.6494H1662C1661.52 27.6465 1661.04 27.7349 1660.58 27.9095C1660.13 28.0842 1659.72 28.3417 1659.38 28.6672C1659.03 28.9927 1658.76 29.3798 1658.57 29.8062C1658.39 30.2326 1658.29 30.6898 1658.29 31.1516C1658.29 31.6134 1658.39 32.0707 1658.57 32.497C1658.76 32.9234 1659.03 33.3105 1659.38 33.636C1659.72 33.9615 1660.13 34.219 1660.58 34.3937C1661.04 34.5684 1661.52 34.6568 1662 34.6538H1779.22C1780.2 34.6479 1781.13 34.2763 1781.82 33.6202C1782.5 32.964 1782.89 32.0766 1782.89 31.1516C1782.89 30.2266 1782.5 29.3392 1781.82 28.6831C1781.13 28.0269 1780.2 27.6553 1779.22 27.6494Z" fill="white"/>
<path d="M2056 44H1346V29.8592C1346.01 22.4708 1347.85 15.3883 1351.12 10.1655C1354.39 4.9427 1358.82 2.00613 1363.45 2H2038.55C2043.18 2.00606 2047.61 4.94261 2050.88 10.1654C2054.15 15.3882 2055.99 22.4707 2056 29.8592V44Z" fill="#183C81"/>
</g>
<path d="M1795.38 420.864H1392.54C1388.1 420.859 1383.85 419.095 1380.71 415.958C1377.58 412.821 1375.81 408.569 1375.81 404.133V115.118C1375.81 110.682 1377.58 106.429 1380.71 103.292C1383.85 100.155 1388.1 98.391 1392.54 98.386H1795.38C1799.82 98.391 1804.07 100.155 1807.21 103.292C1810.35 106.429 1812.11 110.682 1812.11 115.118V404.133C1812.11 408.569 1810.35 412.821 1807.21 415.958C1804.07 419.095 1799.82 420.859 1795.38 420.864ZM1392.54 107.192C1390.44 107.194 1388.42 108.03 1386.94 109.516C1385.45 111.002 1384.62 113.016 1384.61 115.118V404.133C1384.62 406.234 1385.45 408.248 1386.94 409.734C1388.42 411.22 1390.44 412.056 1392.54 412.058H1795.38C1797.48 412.056 1799.5 411.22 1800.98 409.734C1802.47 408.248 1803.31 406.234 1803.31 404.133V115.118C1803.31 113.016 1802.47 111.002 1800.98 109.516C1799.5 108.03 1797.48 107.194 1795.38 107.192H1392.54Z" fill="#E6E6E6"/>
<path d="M1585.4 519.765C1603.3 519.765 1617.81 505.254 1617.81 487.353C1617.81 469.452 1603.3 454.941 1585.4 454.941C1567.5 454.941 1552.99 469.452 1552.99 487.353C1552.99 505.254 1567.5 519.765 1585.4 519.765Z" fill="#E6E6E6"/>
<path d="M1585.4 512.202C1599.12 512.202 1610.25 501.077 1610.25 487.353C1610.25 473.629 1599.12 462.504 1585.4 462.504C1571.68 462.504 1560.55 473.629 1560.55 487.353C1560.55 501.077 1571.68 512.202 1585.4 512.202Z" fill="white"/>
<path d="M1597.85 500.925C1597.7 500.925 1597.55 500.896 1597.41 500.839C1597.28 500.782 1597.15 500.698 1597.05 500.593L1572.15 475.693C1571.94 475.479 1571.83 475.194 1571.84 474.899C1571.84 474.604 1571.96 474.322 1572.17 474.113C1572.38 473.905 1572.66 473.786 1572.95 473.782C1573.25 473.778 1573.53 473.89 1573.75 474.093L1598.65 498.993C1598.81 499.151 1598.91 499.353 1598.96 499.572C1599 499.792 1598.98 500.019 1598.89 500.226C1598.81 500.433 1598.66 500.609 1598.48 500.734C1598.29 500.858 1598.07 500.925 1597.85 500.925H1597.85Z" fill="#0568FD"/>
<path d="M1599.45 489.748C1599.69 489.381 1599.81 488.953 1599.81 488.518C1599.81 488.082 1599.68 487.655 1599.45 487.289C1597.63 484.452 1595.24 482.029 1592.42 480.178C1589.57 478.281 1586.23 477.247 1582.81 477.202C1581.08 477.204 1579.36 477.486 1577.73 478.036C1577.68 478.051 1577.64 478.078 1577.61 478.113C1577.57 478.149 1577.55 478.192 1577.54 478.24C1577.53 478.287 1577.53 478.336 1577.54 478.382C1577.56 478.428 1577.58 478.471 1577.62 478.505L1580.96 481.847C1580.99 481.881 1581.04 481.906 1581.08 481.919C1581.13 481.932 1581.18 481.933 1581.23 481.92C1582.98 481.495 1584.83 481.781 1586.36 482.717C1587.9 483.653 1589.01 485.161 1589.43 486.911L1589.44 486.944C1590.02 489.65 1591.34 492.141 1593.25 494.141L1594.31 495.206C1594.36 495.256 1594.43 495.286 1594.5 495.289C1594.57 495.292 1594.64 495.268 1594.7 495.223C1596.55 493.646 1598.15 491.8 1599.45 489.748Z" fill="#0568FD"/>
<path d="M1587.86 492.599C1586.97 492.599 1586.08 492.423 1585.26 492.082C1584.44 491.741 1583.69 491.24 1583.06 490.61C1582.43 489.979 1581.93 489.231 1581.59 488.407C1581.24 487.583 1581.07 486.7 1581.07 485.808C1581.07 485.802 1581.07 485.796 1581.07 485.79C1581.08 485.197 1580.98 484.607 1580.76 484.053C1580.55 483.5 1580.23 482.995 1579.82 482.567L1576.46 479.207C1576.41 479.157 1576.34 479.127 1576.27 479.125C1576.2 479.122 1576.13 479.146 1576.07 479.192C1574.26 480.767 1572.65 482.566 1571.29 484.547C1571.03 484.914 1570.89 485.35 1570.88 485.797C1570.87 486.245 1571 486.685 1571.24 487.061C1573.03 489.901 1575.4 492.328 1578.19 494.181C1581.05 496.086 1584.4 497.11 1587.84 497.126C1589.58 497.121 1591.32 496.846 1592.98 496.309C1593.02 496.294 1593.06 496.268 1593.1 496.232C1593.13 496.197 1593.15 496.153 1593.16 496.106C1593.18 496.059 1593.17 496.01 1593.16 495.963C1593.15 495.916 1593.12 495.873 1593.09 495.839L1589.73 492.482C1589.7 492.447 1589.65 492.422 1589.61 492.409C1589.56 492.396 1589.51 492.396 1589.46 492.408C1588.94 492.535 1588.4 492.599 1587.86 492.599V492.599Z" fill="#0568FD"/>
<path d="M1462.42 519.765C1480.33 519.765 1494.84 505.254 1494.84 487.353C1494.84 469.452 1480.33 454.941 1462.42 454.941C1444.52 454.941 1430.01 469.452 1430.01 487.353C1430.01 505.254 1444.52 519.765 1462.42 519.765Z" fill="#E6E6E6"/>
<path d="M1462.42 512.202C1476.15 512.202 1487.27 501.077 1487.27 487.353C1487.27 473.629 1476.15 462.504 1462.42 462.504C1448.7 462.504 1437.58 473.629 1437.58 487.353C1437.58 501.077 1448.7 512.202 1462.42 512.202Z" fill="white"/>
<path d="M1471.97 503.198C1470.59 503.198 1468.65 502.699 1465.75 501.076C1462.14 499.147 1458.84 496.681 1455.97 493.763C1453 490.933 1450.52 487.63 1448.63 483.989C1446.02 479.249 1446.47 476.765 1446.96 475.703C1447.54 474.542 1448.44 473.575 1449.55 472.922C1450.2 472.502 1450.87 472.142 1451.58 471.847C1451.65 471.816 1451.72 471.787 1451.78 471.761C1452.01 471.628 1452.27 471.547 1452.54 471.523C1452.8 471.498 1453.07 471.531 1453.33 471.619C1453.89 471.891 1454.4 472.276 1454.8 472.751C1456.28 474.402 1457.52 476.245 1458.49 478.229C1458.9 478.915 1459.14 479.68 1459.22 480.472C1459.16 481.255 1458.84 481.997 1458.32 482.581C1458.22 482.707 1458.13 482.828 1458.04 482.945C1457.5 483.653 1457.39 483.857 1457.46 484.222C1457.62 484.956 1460.01 485.593 1461.94 487.523C1463.88 489.452 1464.78 492.1 1465.52 492.257C1465.9 492.338 1466.11 492.215 1466.84 491.658C1466.95 491.578 1467.05 491.495 1467.17 491.412C1467.75 490.861 1468.5 490.523 1469.31 490.455H1469.31C1470.11 490.537 1470.89 490.808 1471.56 491.245C1473.52 492.24 1475.36 493.47 1477.02 494.908C1477.5 495.315 1477.88 495.817 1478.16 496.38C1478.24 496.635 1478.28 496.905 1478.25 497.174C1478.23 497.442 1478.15 497.702 1478.01 497.937C1477.99 497.995 1477.96 498.06 1477.93 498.131C1477.63 498.837 1477.27 499.514 1476.85 500.153C1476.19 501.269 1475.22 502.169 1474.06 502.74C1473.41 503.049 1472.69 503.206 1471.97 503.198V503.198Z" fill="#0568FD"/>
<path d="M1709.33 519.765C1727.23 519.765 1741.74 505.254 1741.74 487.353C1741.74 469.452 1727.23 454.941 1709.33 454.941C1691.43 454.941 1676.92 469.452 1676.92 487.353C1676.92 505.254 1691.43 519.765 1709.33 519.765Z" fill="#E6E6E6"/>
<path d="M1709.33 512.202C1723.05 512.202 1734.18 501.077 1734.18 487.353C1734.18 473.629 1723.05 462.504 1709.33 462.504C1695.6 462.504 1684.48 473.629 1684.48 487.353C1684.48 501.077 1695.6 512.202 1709.33 512.202Z" fill="white"/>
<path d="M1718.38 482.712C1718.08 482.712 1717.79 482.832 1717.58 483.044C1717.37 483.256 1717.25 483.544 1717.25 483.844V486.108C1717.25 490.484 1713.7 491.767 1709.33 491.767C1704.95 491.767 1701.4 490.484 1701.4 486.108V483.844C1701.4 483.544 1701.29 483.256 1701.07 483.044C1700.86 482.832 1700.57 482.712 1700.27 482.712C1699.97 482.712 1699.68 482.832 1699.47 483.044C1699.26 483.256 1699.14 483.544 1699.14 483.844V486.108C1699.14 488.612 1700.07 491.028 1701.74 492.894C1703.41 494.76 1705.71 495.946 1708.2 496.227V500.822C1708.2 501.122 1708.31 501.41 1708.53 501.622C1708.74 501.834 1709.03 501.954 1709.33 501.954H1709.33C1709.63 501.954 1709.92 501.834 1710.13 501.622C1710.34 501.41 1710.46 501.122 1710.46 500.822V496.227C1712.95 495.946 1715.25 494.76 1716.92 492.894C1718.59 491.028 1719.51 488.612 1719.51 486.108V483.844C1719.51 483.544 1719.39 483.256 1719.18 483.044C1718.97 482.832 1718.68 482.712 1718.38 482.712V482.712Z" fill="#0568FD"/>
<path d="M1709.33 488.565C1707.94 488.592 1706.57 488.277 1705.33 487.65C1704.88 487.473 1704.49 487.179 1704.2 486.799C1703.91 486.419 1703.72 485.967 1703.67 485.491V481.278C1703.66 479.608 1706.17 478.249 1709.28 478.242C1709.3 478.242 1709.31 478.242 1709.33 478.242C1712.42 478.224 1714.95 479.555 1714.99 481.213C1714.99 481.235 1714.99 481.257 1714.99 481.278V485.491C1715 487.177 1712.47 488.552 1709.33 488.565Z" fill="#0568FD"/>
<path d="M1795.38 416.902H1392.54C1389.15 416.898 1385.91 415.551 1383.51 413.157C1381.12 410.764 1379.77 407.518 1379.77 404.133V115.118C1379.77 111.732 1381.12 108.487 1383.51 106.093C1385.91 103.699 1389.15 102.353 1392.54 102.349H1795.38C1798.77 102.353 1802.01 103.699 1804.41 106.093C1806.8 108.487 1808.15 111.732 1808.15 115.118V404.133C1808.15 407.518 1806.8 410.764 1804.41 413.157C1802.01 415.551 1798.77 416.898 1795.38 416.902V416.902Z" fill="white"/>
<path d="M1591.99 281.461C1615.54 281.461 1634.63 262.37 1634.63 238.821C1634.63 215.272 1615.54 196.181 1591.99 196.181C1568.44 196.181 1549.35 215.272 1549.35 238.821C1549.35 262.37 1568.44 281.461 1591.99 281.461Z" fill="#FFB8B8"/>
<path d="M1544.42 197.801C1544.75 192.904 1547.98 187.894 1558.27 185.275C1558.27 185.275 1575.93 162.698 1599.92 174.538C1599.92 174.538 1611.55 172.537 1620.18 184.605C1620.18 184.605 1628.73 179.561 1632.34 188.501C1632.34 188.501 1642.37 206.735 1638.67 225.335C1634.98 243.934 1633.09 246.255 1633.09 246.255C1633.09 246.255 1637.8 207.783 1610.69 210.451C1583.58 213.118 1561.76 203.585 1555.62 224.457C1550.52 241.789 1551.16 250.79 1551.16 250.79C1551.16 250.79 1534.12 233.5 1539.91 219.886C1542.88 212.923 1543.93 205.352 1544.42 197.801Z" fill="#2F2E41"/>
<path d="M1476.03 416.461H1711.89C1710.31 398.47 1709.28 385.085 1709.28 380.559C1709.28 360.595 1692.95 338.809 1692.95 338.809L1687.1 335.577L1638.27 320.343L1625.63 303.928C1624.31 302.204 1622.6 300.811 1620.65 299.857C1618.7 298.904 1616.55 298.416 1614.38 298.433L1574.46 298.733C1570.95 298.76 1567.57 300.098 1564.99 302.484L1540.27 325.415L1504.02 342.728L1503.96 342.666L1503.58 342.948L1498.2 346.822L1494.74 349.323C1494.74 349.323 1485.66 360.217 1478.4 392.887C1477.31 397.801 1476.55 406.026 1476.03 416.461Z" fill="#0568FD"/>
<path d="M2014.43 435.186H1880C1875.57 435.181 1871.31 433.416 1868.18 430.28C1865.04 427.143 1863.27 422.89 1863.27 418.454V326.381C1863.27 321.945 1865.04 317.693 1868.18 314.556C1871.31 311.419 1875.57 309.655 1880 309.65H2014.43C2018.87 309.655 2023.12 311.419 2026.26 314.556C2029.39 317.693 2031.16 321.945 2031.16 326.381V418.454C2031.16 422.89 2029.39 427.143 2026.26 430.28C2023.12 433.416 2018.87 435.181 2014.43 435.186V435.186ZM1880 318.456C1877.9 318.458 1875.89 319.294 1874.4 320.78C1872.91 322.266 1872.08 324.28 1872.08 326.381V418.454C1872.08 420.555 1872.91 422.57 1874.4 424.056C1875.89 425.541 1877.9 426.377 1880 426.38H2014.43C2016.53 426.377 2018.55 425.541 2020.03 424.056C2021.52 422.57 2022.36 420.555 2022.36 418.454V326.381C2022.36 324.28 2021.52 322.266 2020.03 320.78C2018.55 319.294 2016.53 318.458 2014.43 318.456H1880Z" fill="#E6E6E6"/>
<path d="M2014.43 431.223H1880C1876.62 431.219 1873.37 429.873 1870.98 427.479C1868.58 425.085 1867.24 421.84 1867.23 418.454V326.381C1867.24 322.996 1868.58 319.75 1870.98 317.356C1873.37 314.963 1876.62 313.616 1880 313.612H2014.43C2017.82 313.616 2021.06 314.963 2023.46 317.356C2025.85 319.75 2027.2 322.996 2027.2 326.381V418.454C2027.2 421.84 2025.85 425.085 2023.46 427.479C2021.06 429.873 2017.82 431.219 2014.43 431.223V431.223Z" fill="white"/>
<path d="M1959.82 343.584C1960.6 338.736 1958.4 335.166 1952.57 333.151C1946.77 328.119 1938.2 326.912 1933.05 334.972C1930.98 334.848 1928.93 335.531 1927.35 336.879C1925.76 338.226 1924.76 340.133 1924.54 342.203C1919.82 347.696 1925.07 367.856 1926.62 375.538L1934.92 375.456L1951.48 375.292L1959.82 375.21L1963 357.198C1964.94 351.961 1964.15 347.368 1959.82 343.584Z" fill="#E6E6E6"/>
<path d="M1989.95 419.416C1992.11 418.033 1994.41 416.861 1996.8 415.918L1973.21 387.913L1957.62 383.924C1957.5 383.852 1957.37 383.779 1957.24 383.703L1930.95 384.711L1930.84 384.599L1914.26 392.71L1890.67 419.979C1893 420.891 1895.23 422.021 1897.35 423.354L1894.91 432.611H1911.79L1916.28 426.085H1916.51C1916.51 425.973 1916.52 425.86 1916.52 425.748L1919.67 421.166C1919.74 424.868 1919.64 428.683 1919.38 432.611H1971.87C1971.79 429.348 1971.77 426.106 1971.77 422.884L1977.64 431.404C1978.08 430.76 1978.55 430.156 1979.02 429.543L1980.18 432.611H1993.62L1990.4 420.357C1990.3 420.019 1990.15 419.7 1989.95 419.416V419.416Z" fill="#E6E6E6"/>
<path d="M2014.43 222.995H1880C1875.57 222.99 1871.31 221.226 1868.18 218.089C1865.04 214.952 1863.27 210.7 1863.27 206.264V114.191C1863.27 109.755 1865.04 105.502 1868.18 102.365C1871.31 99.2287 1875.57 97.4643 1880 97.4593H2014.43C2018.87 97.4643 2023.12 99.2287 2026.26 102.365C2029.39 105.502 2031.16 109.755 2031.16 114.191V206.264C2031.16 210.7 2029.39 214.952 2026.26 218.089C2023.12 221.226 2018.87 222.99 2014.43 222.995V222.995ZM1880 106.265C1877.9 106.268 1875.89 107.104 1874.4 108.589C1872.91 110.075 1872.08 112.09 1872.08 114.191V206.264C1872.08 208.365 1872.91 210.379 1874.4 211.865C1875.89 213.351 1877.9 214.187 1880 214.189H2014.43C2016.53 214.187 2018.55 213.351 2020.03 211.865C2021.52 210.379 2022.36 208.365 2022.36 206.264V114.191C2022.36 112.09 2021.52 110.075 2020.03 108.589C2018.55 107.104 2016.53 106.268 2014.43 106.265H1880Z" fill="#E6E6E6"/>
<path d="M2014.43 219.032H1880C1876.62 219.028 1873.37 217.682 1870.98 215.288C1868.58 212.894 1867.24 209.649 1867.23 206.264V114.191C1867.24 110.805 1868.58 107.56 1870.98 105.166C1873.37 102.772 1876.62 101.426 1880 101.422H2014.43C2017.82 101.426 2021.06 102.772 2023.46 105.166C2025.85 107.56 2027.2 110.805 2027.2 114.191V206.264C2027.2 209.649 2025.85 212.894 2023.46 215.288C2021.06 217.682 2017.82 219.028 2014.43 219.032V219.032Z" fill="white"/>
<path d="M1930.24 146.819C1930.64 150.912 1932.46 154.737 1935.37 157.636C1938.29 160.534 1942.13 162.326 1946.22 162.703C1950.32 163.079 1954.42 162.017 1957.81 159.699C1961.21 157.38 1963.69 153.951 1964.84 150C1965.41 149.403 1971.76 142.619 1969.46 137.221C1968.33 134.293 1967.69 131.194 1967.59 128.055C1967.45 126.023 1966.11 123.943 1961.84 122.856C1961.84 122.856 1954.51 113.485 1944.55 118.4C1944.55 118.4 1939.73 117.569 1936.15 122.578C1936.15 122.578 1932.6 120.485 1931.1 124.195C1931.1 124.195 1926.94 131.763 1928.47 139.482C1928.92 141.959 1929.51 144.409 1930.24 146.819V146.819Z" fill="#E6E6E6"/>
<path d="M1994.99 210.853C1991.98 197.294 1988.21 192.773 1988.21 192.773L1986.77 191.735L1984.54 190.126L1984.38 190.009L1984.36 190.035L1969.31 182.85L1959.05 173.332C1957.98 172.342 1956.58 171.787 1955.12 171.775L1938.55 171.651C1937.65 171.644 1936.76 171.846 1935.95 172.242C1935.14 172.638 1934.43 173.216 1933.88 173.932L1928.64 180.744L1908.37 187.067L1905.95 188.409C1905.95 188.409 1899.17 197.451 1899.17 205.736C1899.17 207.615 1898.74 213.17 1898.08 220.637H1995.97C1995.89 217.356 1995.56 214.086 1994.99 210.853Z" fill="#E6E6E6"/>
<path d="M1930.52 347.336H1754.77C1748.97 347.329 1743.41 345.022 1739.3 340.922C1735.2 336.821 1732.9 331.261 1732.89 325.461V205.085C1732.9 199.286 1735.2 193.726 1739.3 189.625C1743.41 185.524 1748.97 183.217 1754.77 183.21H1930.52C1936.32 183.217 1941.88 185.524 1945.98 189.625C1950.08 193.725 1952.39 199.286 1952.4 205.085V325.461C1952.39 331.261 1950.08 336.821 1945.98 340.922C1941.88 345.022 1936.32 347.329 1930.52 347.336ZM1754.77 194.723C1752.02 194.727 1749.38 195.819 1747.44 197.762C1745.5 199.704 1744.41 202.338 1744.4 205.085V325.461C1744.41 328.208 1745.5 330.842 1747.44 332.784C1749.38 334.727 1752.02 335.82 1754.77 335.823H1930.52C1933.27 335.82 1935.9 334.727 1937.84 332.784C1939.79 330.842 1940.88 328.208 1940.88 325.461V205.085C1940.88 202.338 1939.79 199.704 1937.84 197.762C1935.9 195.819 1933.27 194.727 1930.52 194.723H1754.77Z" fill="#E6E6E6"/>
<path d="M1930.52 188.39H1754.77C1750.34 188.396 1746.09 190.157 1742.96 193.287C1739.83 196.418 1738.07 200.662 1738.07 205.089V325.465C1738.07 329.891 1739.84 334.134 1742.97 337.262C1746.1 340.391 1750.34 342.151 1754.77 342.154H1930.52C1934.94 342.151 1939.19 340.391 1942.32 337.262C1945.45 334.134 1947.21 329.891 1947.22 325.465V205.089C1947.21 200.662 1945.45 196.418 1942.32 193.287C1939.19 190.157 1934.95 188.396 1930.52 188.39V188.39Z" fill="white"/>
<path d="M1873.56 238.713C1881.14 238.713 1887.29 232.568 1887.29 224.988C1887.29 217.408 1881.14 211.263 1873.56 211.263C1865.98 211.263 1859.84 217.408 1859.84 224.988C1859.84 232.568 1865.98 238.713 1873.56 238.713Z" fill="#2F2E41"/>
<path d="M1845.37 285.352C1864.57 285.352 1880.14 269.785 1880.14 250.582C1880.14 231.38 1864.57 215.813 1845.37 215.813C1826.16 215.813 1810.6 231.38 1810.6 250.582C1810.6 269.785 1826.16 285.352 1845.37 285.352Z" fill="#2F2E41"/>
<path d="M1839.32 287.466C1854.93 287.466 1867.58 274.816 1867.58 259.212C1867.58 243.608 1854.93 230.958 1839.32 230.958C1823.72 230.958 1811.07 243.608 1811.07 259.212C1811.07 274.816 1823.72 287.466 1839.32 287.466Z" fill="#9E616A"/>
<path d="M1828.67 224.026C1834.16 222.155 1840.05 221.794 1845.73 222.979C1851.4 224.165 1856.66 226.853 1860.94 230.764C1865.22 234.674 1868.37 239.664 1870.07 245.209C1871.76 250.755 1871.93 256.654 1870.56 262.289C1855.73 262.689 1840.36 262.102 1826.57 253.381L1824.96 243.931L1820.95 252.135C1815.97 252.984 1811.04 253.544 1807.23 249.064C1808.3 243.379 1810.85 238.075 1814.61 233.681C1818.37 229.287 1823.22 225.958 1828.67 224.026Z" fill="#2F2E41"/>
<path d="M1894.13 191.398C1904.34 189.212 1915.52 193.793 1921.75 202.171C1927.98 210.549 1929.24 222.206 1925.5 231.956C1921.69 241.903 1913.47 249.368 1905.78 256.737C1898.09 264.107 1890.35 272.335 1888.04 282.733C1886.38 290.222 1887.75 298.065 1891.86 304.542C1895.98 311.018 1902.49 315.6 1909.97 317.282C1900.34 319.109 1890.31 320.924 1880.85 318.348C1871.39 315.771 1862.74 307.397 1863.29 297.609C1863.68 290.557 1868.49 284.666 1872.68 278.979C1879.5 269.71 1885.18 259.652 1889.59 249.023C1891.7 243.95 1893.54 238.534 1892.95 233.073C1892.41 229.005 1890.59 225.216 1887.74 222.265C1884.89 219.314 1881.17 217.357 1877.12 216.682L1874.59 213.138C1875.44 202.731 1883.92 193.583 1894.13 191.398Z" fill="#2F2E41"/>
<path d="M1904.15 341.377C1902.32 322.729 1891.98 323.461 1891.98 323.461L1864.68 318.127L1852.72 298.271L1822.7 297.1L1812.01 315.839L1790.05 318.584L1790.03 318.895C1787.85 319.06 1780 320.78 1778.43 336.802C1778.28 338.275 1778.08 340.077 1777.82 342.154H1904.23C1904.2 341.88 1904.18 341.624 1904.15 341.377Z" fill="#183C81"/>
<defs>
<clipPath id="clip0_1_348">
<rect width="1584" height="1009" fill="white" transform="translate(0 161)"/>
</clipPath>
<clipPath id="clip1_1_348">
<rect width="786.82" height="572.258" fill="white" transform="translate(19 544)"/>
</clipPath>
<clipPath id="clip2_1_348">
<rect width="704.808" height="544" fill="white" transform="translate(1351)"/>
</clipPath>
</defs>
</svg>
